<svg width="1139" height="849" viewBox="0 0 1139 849" fill="none" xmlns="http://www.w3.org/2000/svg">
<path d="M0.000244141 745.782H1138.95V746.351H0.000244141V745.782Z" fill="#EBEBEB"/>
<path d="M419.884 761.294H477.879V761.864H419.884V761.294Z" fill="#EBEBEB"/>
<path d="M101.503 773.618H238.928V774.187H101.503V773.618Z" fill="#EBEBEB"/>
<path d="M490.225 761.568H632.206V762.137H490.225V761.568Z" fill="#EBEBEB"/>
<path d="M724.279 778.606H753.982V779.176H724.279V778.606Z" fill="#EBEBEB"/>
<path d="M560.157 778.606H695.418V779.176H560.157V778.606Z" fill="#EBEBEB"/>
<path d="M931.863 768.994H1019.45V769.563H931.863V768.994Z" fill="#EBEBEB"/>
<path d="M599.086 644.188H1038.92C1042.37 644.182 1045.67 642.809 1048.11 640.37C1050.54 637.932 1051.91 634.627 1051.91 631.181V12.8929C1051.88 9.46698 1050.5 6.19126 1048.07 3.77724C1045.64 1.36322 1042.35 0.00586873 1038.92 0H599.086C595.636 0 592.328 1.37035 589.889 3.80959C587.45 6.24884 586.079 9.55715 586.079 13.0068V631.181C586.079 634.631 587.45 637.939 589.889 640.378C592.328 642.818 595.636 644.188 599.086 644.188ZM1038.92 0.45558C1042.22 0.461614 1045.38 1.77463 1047.7 4.10642C1050.03 6.43821 1051.34 9.59824 1051.34 12.8929V631.181C1051.34 634.476 1050.03 637.636 1047.7 639.968C1045.38 642.299 1042.22 643.612 1038.92 643.618H599.086C595.789 643.612 592.629 642.3 590.298 639.969C587.967 637.638 586.655 634.478 586.649 631.181V12.8929C586.655 9.59614 587.967 6.43617 590.298 4.10503C592.629 1.77389 595.789 0.461602 599.086 0.45558H1038.92Z" fill="#EBEBEB"/>
<path d="M106.355 644.188H546.216C549.664 644.182 552.969 642.81 555.407 640.372C557.845 637.934 559.217 634.629 559.223 631.181V12.8929C559.187 9.4649 557.802 6.18921 555.367 3.77582C552.932 1.36243 549.645 0.00580473 546.216 0H106.355C102.933 0.0118553 99.6538 1.37186 97.2277 3.78524C94.8015 6.19862 93.4242 9.47091 93.3942 12.8929V631.181C93.3942 634.623 94.7583 637.924 97.1877 640.362C99.6171 642.8 102.914 644.176 106.355 644.188ZM546.216 0.45558C549.513 0.461602 552.673 1.77389 555.004 4.10503C557.335 6.43617 558.648 9.59614 558.654 12.8929V631.181C558.648 634.478 557.335 637.638 555.004 639.969C552.673 642.3 549.513 643.612 546.216 643.618H106.355C103.059 643.612 99.8987 642.3 97.5676 639.969C95.2365 637.638 93.9242 634.478 93.9182 631.181V12.8929C93.9242 9.59614 95.2365 6.43617 97.5676 4.10503C99.8987 1.77389 103.059 0.461602 106.355 0.45558H546.216Z" fill="#EBEBEB"/>
<path d="M692.57 548.22H843.822L853.002 442.298H701.75L692.57 548.22Z" fill="#E6E6E6"/>
<path d="M684.735 548.22H835.987L845.167 442.298H693.915L684.735 548.22Z" fill="#F0F0F0"/>
<path d="M815.303 525.464L820.36 465.032H714.598L709.541 525.464H815.303Z" fill="white"/>
<path d="M658.562 548.22H676.307V745.782H658.562V548.22Z" fill="#E6E6E6"/>
<path d="M652.958 548.22H665.281V745.782H652.958V548.22Z" fill="#F0F0F0"/>
<path d="M824.734 570.02H652.958V548.22H824.734V570.02Z" fill="#F0F0F0"/>
<path d="M818.675 570.02H836.42V745.782H818.675V570.02Z" fill="#E6E6E6"/>
<path d="M813.071 570.02H825.395V745.782H813.071V570.02Z" fill="#F0F0F0"/>
<path d="M944.984 570.02H962.729V745.782H944.984V570.02Z" fill="#E6E6E6"/>
<path d="M939.38 570.02H951.703V745.782H939.38V570.02Z" fill="#F0F0F0"/>
<path d="M770.862 570.02H788.606V745.782H770.862V570.02Z" fill="#E6E6E6"/>
<path d="M765.281 570.02H777.604V745.782H765.281V570.02Z" fill="#F0F0F0"/>
<path d="M824.734 548.22H962.729V570.02H824.734V548.22Z" fill="#E6E6E6"/>
<path d="M310.158 55.6034H843.937V352.777H310.158V55.6034Z" fill="#E0E0E0"/>
<path d="M280.841 55.6034H841.248V352.777H280.841V55.6034Z" fill="#F5F5F5"/>
<path d="M289.999 343.62V64.7604L832.091 64.7604V343.62L289.999 343.62Z" fill="white"/>
<path d="M612.593 343.62L510.248 64.7604H679.153L781.499 343.62H612.593Z" fill="#F5F5F5"/>
<path d="M450.021 343.62L347.675 64.7604H475.1L577.446 343.62H450.021Z" fill="#F5F5F5"/>
<path d="M140.978 461.957H186.354V745.782H140.978V461.957Z" fill="#E6E6E6"/>
<path d="M152.915 745.782H140.979V723.937H165.42L152.915 745.782Z" fill="#FAFAFA"/>
<path d="M559.336 461.957H604.712V745.782H559.336V461.957Z" fill="#E6E6E6"/>
<path d="M140.979 461.957H569.746V739.882H140.979V461.957Z" fill="#FAFAFA"/>
<path d="M149.088 551.637H561.614V473.141H149.088V551.637ZM559.336 549.359H151.366V475.419H559.336V549.359Z" fill="#E6E6E6"/>
<path d="M221.708 511.25H481C493.027 511.25 504.622 501.546 512.891 484.599L513.665 482.981H189.065L189.84 484.599C198.177 501.546 209.566 511.25 221.708 511.25ZM509.929 485.191C502.23 500.293 491.706 508.904 481 508.904H221.708C210.956 508.904 200.478 500.293 192.778 485.191H509.929Z" fill="#E6E6E6"/>
<path d="M557.81 745.782H569.746V723.937H545.304L557.81 745.782Z" fill="#FAFAFA"/>
<path d="M149.088 640.088H561.614V561.682H149.088V640.088ZM559.336 637.81H151.366V563.96H559.336V637.81Z" fill="#E6E6E6"/>
<path d="M221.708 599.792H481C493.027 599.792 504.622 590.065 512.891 573.141L513.665 571.5H189.065L189.84 573.141C198.177 589.974 209.566 599.792 221.708 599.792ZM509.929 573.778C502.23 588.881 491.706 597.514 481 597.514H221.708C210.956 597.514 200.478 588.881 192.778 573.778H509.929Z" fill="#E6E6E6"/>
<path d="M149.088 728.698H561.614V650.202H149.088V728.698ZM559.336 726.42H151.366V652.48H559.336V726.42Z" fill="#E6E6E6"/>
<path d="M221.708 688.311H481C493.027 688.311 504.622 678.607 512.891 661.682L513.665 660.042H189.065L189.84 661.682C198.177 678.607 209.566 688.311 221.708 688.311ZM509.929 662.32C502.23 677.422 491.706 686.033 481 686.033H221.708C210.956 686.033 200.478 677.422 192.778 662.32H509.929Z" fill="#E6E6E6"/>
<path d="M863.366 499.496V505.009H866.874L869.79 548.22H912.705L915.598 505.009H919.129V499.496H863.366Z" fill="#E6E6E6"/>
<path d="M877.491 392.276C880.999 366.536 915.737 359.201 959.814 358.244C1001.75 357.356 1015.19 342.527 1015.19 342.527C1015.19 342.527 1015.05 402.595 954.62 424.371C897.24 445.009 873.96 418.062 877.491 392.276Z" fill="#E6E6E6"/>
<path d="M898.902 450.613C898.173 440.043 881.271 420.59 840.61 429.428C811.226 435.829 800.292 420.59 800.292 420.59C800.292 420.59 803.025 463.597 847.216 476.512C889.198 488.79 900.2 469.246 898.902 450.613Z" fill="#E6E6E6"/>
<path d="M889.63 515.715C889.401 515.717 889.175 515.669 888.966 515.575C888.758 515.48 888.572 515.342 888.423 515.168C885.484 511.683 887.899 503.346 891.225 491.797C895.507 476.991 900.837 458.54 896.327 445.168C893.827 438.105 890.906 431.199 887.58 424.485C881.202 411 875.689 399.428 880.291 387.173C880.363 386.978 880.472 386.799 880.614 386.647C880.755 386.495 880.925 386.372 881.114 386.286C881.303 386.2 881.507 386.152 881.715 386.145C881.923 386.139 882.13 386.173 882.324 386.247C882.518 386.321 882.696 386.432 882.847 386.575C882.997 386.718 883.118 386.889 883.203 387.079C883.287 387.269 883.333 387.474 883.337 387.682C883.342 387.889 883.305 388.096 883.229 388.289C879.106 399.201 884.095 409.77 890.427 423.164C893.796 429.985 896.762 436.998 899.311 444.166C904.118 458.471 898.651 477.446 894.254 492.662C891.657 501.774 888.97 510.886 890.815 513.163C890.961 513.321 891.073 513.507 891.144 513.71C891.215 513.913 891.242 514.128 891.225 514.343C891.208 514.557 891.146 514.765 891.044 514.954C890.942 515.143 890.802 515.309 890.632 515.441C890.341 515.649 889.986 515.746 889.63 515.715Z" fill="#E6E6E6"/>
<path d="M569.473 848.652C325.551 848.652 127.813 837.107 127.813 822.866C127.813 808.625 325.551 797.08 569.473 797.08C813.396 797.08 1011.13 808.625 1011.13 822.866C1011.13 837.107 813.396 848.652 569.473 848.652Z" fill="#F5F5F5"/>
<path d="M569.565 697.149H893.025L910.725 176.947H587.264L569.565 697.149Z" fill="#FFA500"/>
<path d="M553.414 680.999H876.875L894.597 160.796H571.136L553.414 680.999Z" fill="#FFA500"/>
<path opacity="0.3" d="M553.414 680.999H876.875L894.597 160.796H571.136L553.414 680.999Z" fill="white"/>
<path d="M661.79 374.859C627.157 339.628 628.63 282.019 665.082 246.186C701.533 210.354 759.158 209.866 793.792 245.097C828.425 280.328 826.952 337.936 790.5 373.769C754.049 409.602 696.424 410.09 661.79 374.859Z" fill="#FFA500"/>
<path d="M652.685 309.998C652.219 322.394 654.924 334.703 660.544 345.761C666.609 357.678 675.875 367.669 687.302 374.614C698.729 381.559 711.865 385.182 725.236 385.078C738.922 385.004 752.347 381.332 764.166 374.431C775.984 367.531 785.78 357.643 792.571 345.761C798.903 334.873 802.44 322.586 802.867 309.998C803.287 300.238 801.718 290.494 798.256 281.358C794.794 272.222 789.511 263.886 782.727 256.855C775.944 249.825 767.802 244.246 758.796 240.46C749.79 236.673 740.108 234.757 730.339 234.828C710.213 234.97 690.916 242.86 676.455 256.858C661.994 270.857 653.482 289.888 652.685 309.998Z" fill="white"/>
<path opacity="0.6" d="M660.59 345.761C666.655 357.678 675.921 367.67 687.348 374.614C698.775 381.559 711.91 385.182 725.282 385.078C738.967 385.004 752.393 381.332 764.211 374.432C776.03 367.531 785.826 357.643 792.616 345.761C773.352 332.627 750.556 325.646 727.241 325.739C703.549 325.79 680.387 332.748 660.59 345.761Z" fill="#FFA500"/>
<path opacity="0.6" d="M704.388 308.125C691.653 295.17 692.195 273.987 705.598 260.811C719.002 247.635 740.191 247.456 752.926 260.41C765.662 273.365 765.12 294.549 751.716 307.725C738.313 320.901 717.124 321.08 704.388 308.125Z" fill="#FFA500"/>
<path d="M618.402 492.617H824.734L826.123 451.615H619.792L618.402 492.617Z" fill="white"/>
<path d="M615.898 565.897H822.252L823.642 524.895H617.287L615.898 565.897Z" fill="white"/>
<path d="M695.532 530.544L745.259 537.377C745.733 537.432 746.191 537.583 746.604 537.823C747.017 538.062 747.376 538.385 747.659 538.77C747.941 539.155 748.141 539.594 748.245 540.06C748.35 540.526 748.357 541.009 748.266 541.478L741.728 574.803C741.514 575.781 740.942 576.644 740.124 577.221C739.306 577.799 738.302 578.049 737.309 577.924L687.583 571.09C687.109 571.03 686.653 570.874 686.243 570.631C685.832 570.387 685.476 570.063 685.196 569.676C684.917 569.289 684.719 568.85 684.616 568.384C684.513 567.918 684.507 567.436 684.598 566.967L691.113 533.642C691.327 532.665 691.9 531.805 692.719 531.231C693.537 530.657 694.542 530.412 695.532 530.544ZM709.815 564.302L718.926 565.509L719.815 554.758C720.754 554.352 721.581 553.726 722.227 552.933C722.873 552.14 723.319 551.203 723.528 550.202C723.695 549.426 723.698 548.624 723.536 547.847C723.373 547.07 723.05 546.336 722.586 545.692C722.123 545.048 721.529 544.508 720.843 544.108C720.158 543.708 719.396 543.456 718.607 543.368C716.99 543.16 715.352 543.566 714.02 544.507C712.687 545.448 711.755 546.854 711.409 548.448C711.212 549.411 711.272 550.409 711.584 551.341C711.896 552.273 712.449 553.106 713.186 553.756L709.815 564.302Z" fill="#FFA500"/>
<path d="M700.453 528.744C701.332 528.856 702.221 528.636 702.946 528.126C703.671 527.616 704.179 526.853 704.371 525.988L705.009 522.731C705.919 518.286 708.411 514.321 712.021 511.573C715.632 508.826 720.117 507.481 724.644 507.788C726.929 507.918 729.158 508.538 731.182 509.607C733.205 510.675 734.975 512.166 736.371 513.979C737.767 515.792 738.756 517.885 739.272 520.114C739.788 522.343 739.817 524.657 739.359 526.899L738.63 530.658C738.545 531.074 738.548 531.504 738.639 531.919C738.73 532.334 738.906 532.726 739.157 533.069C739.408 533.412 739.728 533.699 740.096 533.912C740.464 534.124 740.873 534.257 741.295 534.302C742.176 534.425 743.071 534.209 743.798 533.697C744.525 533.186 745.031 532.417 745.213 531.546L745.828 528.38C746.454 525.421 746.475 522.366 745.889 519.398C745.304 516.431 744.125 513.613 742.423 511.112C740.721 508.612 738.531 506.482 735.984 504.85C733.438 503.218 730.588 502.117 727.605 501.615C721.139 500.529 714.502 501.975 709.073 505.652C703.644 509.329 699.839 514.956 698.448 521.364L697.719 525.1C697.634 525.521 697.639 525.956 697.734 526.376C697.829 526.796 698.012 527.19 698.27 527.534C698.528 527.879 698.856 528.164 699.232 528.373C699.608 528.581 700.024 528.708 700.453 528.744Z" fill="#FFA500"/>
<path d="M649.951 623.322H784.279L785.167 596.625H650.862L649.951 623.322Z" fill="#FFA500"/>
<path d="M714.757 472.116C714.717 473.09 714.875 474.061 715.222 474.972C715.568 475.883 716.096 476.714 716.773 477.415C717.451 478.116 718.263 478.671 719.162 479.049C720.06 479.426 721.026 479.617 722.001 479.61C724.009 479.595 725.935 478.808 727.381 477.414C728.826 476.019 729.681 474.123 729.768 472.116C729.808 471.142 729.65 470.17 729.304 469.26C728.957 468.349 728.429 467.518 727.752 466.817C727.075 466.116 726.262 465.56 725.364 465.183C724.465 464.806 723.499 464.615 722.525 464.622C720.514 464.632 718.585 465.416 717.139 466.812C715.692 468.208 714.839 470.107 714.757 472.116Z" fill="#263238"/>
<path d="M747.149 472.116C747.106 473.09 747.261 474.064 747.607 474.976C747.952 475.888 748.48 476.721 749.158 477.422C749.836 478.123 750.65 478.679 751.55 479.055C752.45 479.432 753.417 479.62 754.393 479.61C756.399 479.594 758.322 478.807 759.764 477.412C761.206 476.017 762.056 474.121 762.137 472.116C762.178 471.142 762.02 470.17 761.673 469.26C761.326 468.349 760.798 467.518 760.121 466.817C759.444 466.116 758.631 465.56 757.733 465.183C756.834 464.806 755.868 464.615 754.894 464.622C752.886 464.632 750.959 465.417 749.516 466.813C748.073 468.21 747.225 470.109 747.149 472.116Z" fill="#263238"/>
<path d="M779.336 472.116C779.296 473.09 779.454 474.061 779.801 474.972C780.148 475.883 780.675 476.714 781.353 477.415C782.03 478.116 782.843 478.671 783.741 479.049C784.64 479.426 785.606 479.617 786.58 479.61C788.588 479.6 790.514 478.815 791.957 477.418C793.4 476.022 794.249 474.122 794.325 472.116C794.365 471.142 794.207 470.17 793.86 469.26C793.514 468.349 792.986 467.518 792.309 466.817C791.631 466.116 790.819 465.56 789.92 465.183C789.022 464.806 788.056 464.615 787.081 464.622C785.073 464.632 783.147 465.417 781.704 466.813C780.261 468.21 779.413 470.109 779.336 472.116Z" fill="#263238"/>
<path d="M682.48 472.116C682.44 473.09 682.598 474.062 682.944 474.972C683.291 475.883 683.819 476.714 684.496 477.415C685.173 478.116 685.986 478.672 686.885 479.049C687.783 479.426 688.749 479.617 689.723 479.61C691.731 479.6 693.658 478.815 695.101 477.418C696.544 476.022 697.392 474.123 697.468 472.116C697.502 471.145 697.339 470.177 696.988 469.272C696.637 468.366 696.105 467.541 695.426 466.846C694.746 466.152 693.933 465.603 693.035 465.232C692.137 464.862 691.173 464.677 690.202 464.69C688.209 464.705 686.298 465.484 684.862 466.865C683.425 468.246 682.573 470.125 682.48 472.116Z" fill="#263238"/>
<path d="M650.203 472.116C650.159 473.09 650.315 474.064 650.66 474.976C651.006 475.888 651.534 476.721 652.212 477.422C652.89 478.123 653.703 478.679 654.603 479.055C655.504 479.432 656.471 479.62 657.446 479.61C659.453 479.594 661.376 478.807 662.818 477.412C664.259 476.017 665.109 474.121 665.191 472.116C665.231 471.142 665.073 470.17 664.727 469.26C664.38 468.349 663.852 467.518 663.175 466.817C662.497 466.116 661.685 465.56 660.786 465.183C659.888 464.806 658.922 464.615 657.947 464.622C655.939 464.632 654.013 465.417 652.57 466.813C651.127 468.21 650.279 470.109 650.203 472.116Z" fill="#263238"/>
<path d="M378.335 271.707C375.305 276.582 372.777 281.228 370.18 286.08C367.583 290.932 365.237 295.807 362.936 300.796C358.242 310.897 354.357 321.355 351.319 332.071C350.909 333.415 350.613 334.85 350.271 336.24L349.77 338.358L349.519 339.406L349.223 341.137C348.709 345.064 348.949 349.053 349.929 352.891C351.502 358.849 353.894 364.561 357.036 369.861C362.658 379.494 369.452 388.393 377.264 396.353L386.854 389.109C382.04 380.261 377.758 371.133 374.029 361.775C372.368 357.652 371.199 353.347 370.544 348.95C370.335 347.608 370.397 346.237 370.727 344.918L371.638 342.139C372.002 341 372.344 339.861 372.777 338.7C376.241 329.302 380.25 320.115 384.781 311.183C389.337 302.071 394.234 292.96 399.132 284.258L378.335 271.707Z" fill="#FF8B7B"/>
<path d="M384.417 385.943L394.895 391.479L382.868 405.556C382.868 405.556 375.351 400.476 375.009 392.731L384.417 385.943Z" fill="#FF8B7B"/>
<path d="M408.95 400.157L396.08 410.385L382.868 405.556L394.896 391.479L408.95 400.157Z" fill="#FF8B7B"/>
<path d="M452.959 197.174C453.209 198.45 454.098 199.338 454.918 199.179C455.738 199.019 456.216 197.835 455.966 196.582C455.715 195.329 454.827 194.304 453.984 194.577C453.141 194.851 452.708 195.899 452.959 197.174Z" fill="#263238"/>
<path d="M453.984 199.361C456.278 202.929 459.053 206.164 462.23 208.974C461.48 209.751 460.57 210.358 459.563 210.751C458.557 211.144 457.477 211.315 456.399 211.252L453.984 199.361Z" fill="#FF5652"/>
<path d="M458.083 244.053V229.11L438.311 231.388C438.311 231.388 438.63 244.236 449.701 248.017L458.083 244.053Z" fill="#FF8B7B"/>
<path d="M452.389 218.359L438.471 222.368L438.221 231.502L457.993 229.11L452.389 218.359Z" fill="#FF8B7B"/>
<path opacity="0.2" d="M438.471 222.368L452.389 218.359L455.1 223.552C454.952 227.645 453.673 231.616 451.406 235.026C449.138 238.435 445.97 241.15 442.253 242.869C439.861 239.529 438.464 235.58 438.221 231.479L438.471 222.368Z" fill="black"/>
<path d="M446.9 191.092C446.754 191.088 446.612 191.043 446.49 190.962C446.369 190.881 446.273 190.767 446.213 190.634C446.154 190.5 446.133 190.353 446.154 190.208C446.174 190.064 446.236 189.928 446.33 189.817C447.13 188.913 448.135 188.214 449.261 187.778C450.386 187.342 451.599 187.182 452.799 187.311C452.996 187.344 453.171 187.454 453.286 187.617C453.401 187.779 453.447 187.98 453.414 188.177C453.381 188.374 453.272 188.551 453.11 188.67C452.949 188.789 452.748 188.841 452.549 188.814C451.598 188.721 450.639 188.857 449.752 189.209C448.864 189.562 448.074 190.122 447.446 190.842C447.377 190.918 447.292 190.979 447.198 191.022C447.104 191.065 447.003 191.089 446.9 191.092Z" fill="#263238"/>
<path d="M417.788 220.227C420.066 231.958 421.478 248.199 413.232 256.012C413.232 256.012 416.421 267.903 438.289 267.903C462.229 267.903 449.792 257.47 449.792 257.47C439.838 254.372 439.929 243.051 442.207 233.939L417.788 220.227Z" fill="#FF8B7B"/>
<path d="M408.79 263.848C406.649 260.841 406.74 251.297 409.018 249.611C412.686 246.901 428.426 246.263 449.587 251.138C447.31 260.386 452.207 265.215 452.207 265.215L408.79 263.848Z" fill="#FFA500"/>
<path d="M337.583 804.643C338.233 804.871 338.922 804.969 339.61 804.93C340.298 804.891 340.972 804.716 341.592 804.415C341.827 804.196 341.988 803.91 342.054 803.596C342.119 803.282 342.085 802.955 341.956 802.661C341.885 802.415 341.76 802.187 341.591 801.994C341.421 801.801 341.212 801.648 340.977 801.545C338.813 800.497 333.847 802.524 333.619 802.615C333.551 802.643 333.493 802.69 333.453 802.751C333.412 802.812 333.391 802.884 333.392 802.957C333.392 803.03 333.411 803.102 333.447 803.166C333.483 803.229 333.534 803.283 333.597 803.322C334.881 803.886 336.216 804.328 337.583 804.643ZM340.203 802.069C340.353 802.104 340.498 802.158 340.635 802.228C340.777 802.28 340.905 802.365 341.008 802.476C341.111 802.587 341.186 802.72 341.228 802.866C341.433 803.549 341.228 803.777 341.091 803.845C340.225 804.574 337.036 803.845 334.781 803.003C336.497 802.293 338.348 801.974 340.203 802.069Z" fill="#FFA500"/>
<path d="M333.688 803.344H333.87C335.692 802.82 339.565 800.064 339.61 798.264C339.612 797.978 339.516 797.7 339.338 797.477C339.159 797.253 338.91 797.097 338.631 797.034C338.361 796.933 338.072 796.893 337.784 796.917C337.497 796.94 337.218 797.027 336.968 797.171C334.827 798.264 333.46 802.683 333.414 802.888C333.382 802.944 333.366 803.007 333.366 803.071C333.366 803.135 333.382 803.198 333.414 803.253C333.45 803.289 333.493 803.315 333.54 803.331C333.588 803.347 333.638 803.351 333.688 803.344ZM338.244 797.672H338.426C338.881 797.832 338.881 798.059 338.881 798.173C338.881 799.244 336.285 801.408 334.326 802.273C334.804 800.998 335.852 798.469 337.241 797.718C337.55 797.577 337.901 797.561 338.221 797.672H338.244Z" fill="#FFA500"/>
<path d="M455.897 807.33C457.947 807.33 459.929 807.034 460.59 806.123C460.762 805.88 460.855 805.59 460.855 805.292C460.855 804.994 460.762 804.703 460.59 804.46C460.46 804.238 460.285 804.044 460.078 803.891C459.87 803.739 459.634 803.63 459.382 803.572C456.717 802.843 451.114 806.032 450.886 806.169C450.816 806.203 450.76 806.26 450.727 806.33C450.693 806.401 450.685 806.48 450.704 806.556C450.712 806.634 450.745 806.707 450.799 806.764C450.852 806.822 450.923 806.861 451 806.875C452.615 807.171 454.254 807.324 455.897 807.33ZM458.426 804.21C458.667 804.17 458.913 804.17 459.155 804.21C459.309 804.241 459.455 804.304 459.584 804.394C459.713 804.484 459.823 804.6 459.906 804.734C460.18 805.212 460.066 805.44 459.906 805.576C459.155 806.624 455.123 806.647 452.139 806.214C454.087 805.15 456.221 804.469 458.426 804.21Z" fill="#FFA500"/>
<path d="M451.023 806.875H451.182C453.119 806.009 456.945 802.547 456.649 800.725C456.649 800.292 456.285 799.768 455.237 799.677C454.863 799.633 454.483 799.667 454.122 799.777C453.762 799.886 453.428 800.07 453.141 800.315C451.682 802.06 450.805 804.219 450.636 806.488C450.636 806.553 450.651 806.617 450.678 806.676C450.706 806.735 450.746 806.787 450.795 806.829C450.865 806.865 450.944 806.881 451.023 806.875ZM454.941 800.383H455.169C455.852 800.383 455.898 800.702 455.898 800.793C456.08 801.886 453.483 804.62 451.501 805.804C451.675 803.976 452.416 802.248 453.62 800.861C453.994 800.542 454.472 800.372 454.964 800.383H454.941Z" fill="#FFA500"/>
<path d="M433.437 806.51H449.45L451.045 769.404H435.031L433.437 806.51Z" fill="#FF8B7B"/>
<path d="M315.83 799.085L331.479 802.479L347.219 767.923L331.547 764.529L315.83 799.085Z" fill="#FF8B7B"/>
<path d="M333.006 800.907L315.397 797.103C315.09 797.037 314.769 797.079 314.488 797.219C314.206 797.36 313.981 797.592 313.849 797.877L307.744 811.135C307.581 811.456 307.497 811.811 307.498 812.17C307.499 812.53 307.586 812.885 307.75 813.205C307.914 813.525 308.152 813.801 308.444 814.011C308.736 814.222 309.074 814.36 309.429 814.415C315.58 815.622 318.655 815.918 326.377 817.581C331.138 818.629 341.889 821.248 348.472 822.661C355.056 824.073 357.311 817.763 354.737 816.602C343.233 811.34 338.45 806.716 335.329 802.41C334.765 801.642 333.938 801.107 333.006 800.907Z" fill="#263238"/>
<path d="M449.337 804.643H431.843C431.525 804.645 431.218 804.754 430.97 804.952C430.722 805.15 430.548 805.427 430.476 805.736L427.31 819.973C427.217 820.317 427.206 820.678 427.278 821.027C427.35 821.376 427.503 821.703 427.725 821.983C427.946 822.262 428.23 822.485 428.554 822.634C428.878 822.784 429.232 822.855 429.588 822.843C435.898 822.729 445.009 822.365 452.936 822.365C462.23 822.365 470.225 822.866 481.114 822.866C487.697 822.866 489.519 816.214 486.763 815.599C474.235 812.866 463.984 812.57 453.164 805.895C452.028 805.134 450.704 804.701 449.337 804.643Z" fill="#263238"/>
<path d="M384.576 259.68C369.565 263.119 357.241 301.456 357.241 301.456L387.241 324.395C395.028 316.069 400.522 305.866 403.187 294.782C408.494 274.691 399.929 256.126 384.576 259.68Z" fill="#FFA500"/>
<path opacity="0.4" d="M384.576 259.68C369.565 263.119 357.241 301.456 357.241 301.456L387.241 324.395C395.028 316.069 400.522 305.866 403.187 294.782C408.494 274.691 399.929 256.126 384.576 259.68Z" fill="black"/>
<path d="M463.551 305.397C467.287 309.429 471.022 313.028 474.94 316.786C476.876 318.609 478.835 320.431 480.84 322.185L483.87 324.85L484.621 325.511L485.92 326.559C487.256 327.626 488.736 328.5 490.316 329.155C492.074 329.902 493.964 330.289 495.874 330.294C497.506 330.301 499.126 330.016 500.658 329.452C502.356 328.805 503.906 327.821 505.213 326.559C506.882 324.928 508.106 322.897 508.767 320.659C509.113 319.556 509.335 318.417 509.428 317.265C509.547 315.916 509.547 314.559 509.428 313.21C509.314 312.117 509.177 311.16 508.995 310.272C508.371 307.166 507.488 304.118 506.352 301.16C505.328 298.349 504.149 295.596 502.822 292.914C501.364 290.021 499.974 287.903 498.585 285.488C492.941 276.243 486.501 267.508 479.337 259.384C472.245 251.307 464.429 243.896 455.988 237.242L447.606 245.876C453.483 253.757 459.268 262.208 464.621 270.522C469.949 278.79 474.816 287.345 479.2 296.149C480.179 298.29 481.478 300.705 482.093 302.436C482.908 304.447 483.615 306.5 484.211 308.586C484.785 310.465 485.219 312.383 485.51 314.326C485.525 314.63 485.525 314.934 485.51 315.237C485.51 315.42 485.51 315.511 485.51 315.032C485.547 314.521 485.647 314.016 485.806 313.529C486.298 311.914 487.201 310.454 488.425 309.292C489.515 308.291 490.793 307.517 492.184 307.014C493.407 306.551 494.703 306.312 496.011 306.308C497.268 306.293 498.516 306.533 499.678 307.014C500.072 307.175 500.452 307.365 500.817 307.584L499.952 306.786L497.195 304.281L491.751 299.178C488.152 295.784 484.53 292.162 481.113 288.791L463.551 305.397Z" fill="#FF8B7B"/>
<path opacity="0.2" d="M397.446 287.834C389.291 295.898 386.626 310.613 386.057 323.37L387.378 324.395C395.165 316.069 400.659 305.866 403.323 294.782C403.619 293.598 403.893 292.504 404.098 291.206L397.446 287.834Z" fill="black"/>
<path d="M479.473 275.625C482.753 292.937 484.804 328.495 475.305 398.882H389.519C388.927 385.738 397.196 321.547 384.508 259.566C393.988 257.745 403.575 256.536 413.209 255.944C425.348 255.248 437.517 255.248 449.656 255.944C453.665 256.308 457.628 256.901 461.045 257.516C465.589 258.313 469.784 260.471 473.075 263.705C476.366 266.939 478.597 271.095 479.473 275.625Z" fill="#FFA500"/>
<path opacity="0.4" d="M479.473 275.625C482.753 292.937 484.804 328.495 475.305 398.882H389.519C388.927 385.738 397.196 321.547 384.508 259.566C393.988 257.745 403.575 256.536 413.209 255.944C425.348 255.248 437.517 255.248 449.656 255.944C453.665 256.308 457.628 256.901 461.045 257.516C465.589 258.313 469.784 260.471 473.075 263.705C476.366 266.939 478.597 271.095 479.473 275.625Z" fill="black"/>
<path opacity="0.2" d="M466.353 301.297L481.842 297.584C482.321 306.969 482.366 318.586 481.683 332.959C474.553 324.85 465.441 312.185 466.353 301.297Z" fill="black"/>
<path opacity="0.2" d="M451.045 769.404L450.225 788.538H434.188L435.009 769.404H451.045Z" fill="black"/>
<path opacity="0.2" d="M331.547 764.529L347.219 767.923L339.11 785.736L323.438 782.342L331.547 764.529Z" fill="black"/>
<path d="M410.18 203.097C414.28 218.45 415.92 227.652 425.396 234.031C439.633 243.734 457.401 232.618 457.856 216.4C458.357 201.753 451.546 179.088 435.077 175.99C431.458 175.311 427.726 175.564 424.232 176.727C420.737 177.889 417.597 179.922 415.106 182.634C412.615 185.346 410.856 188.648 409.994 192.228C409.132 195.808 409.196 199.548 410.18 203.097Z" fill="#FF8B7B"/>
<path d="M446.125 203.666C446.9 201.616 450.43 185.739 447.105 181.616C443.779 177.493 405.852 180.477 400.248 185.99C390.932 195.101 397.401 203.302 407.583 213.849C415.237 221.776 415.533 230.705 419.406 232.072C426.239 234.35 436.672 232.208 438.768 224.987C440.863 217.767 446.125 203.666 446.125 203.666Z" fill="#263238"/>
<path d="M404.849 167.926C418.243 162.231 443.369 168.541 456.945 165.261C457.118 170.309 455.458 175.249 452.271 179.169C449.085 183.088 444.587 185.721 439.61 186.582C428.348 188.728 416.906 189.789 405.442 189.748C390.544 189.065 393.46 172.778 404.849 167.926Z" fill="#263238"/>
<path d="M402.753 186.468C397.861 186.95 392.933 186.008 388.562 183.758C386.056 189.817 399.838 191.48 402.753 186.468Z" fill="#263238"/>
<path d="M438.836 204.304C439.143 208.254 440.745 211.993 443.392 214.942C446.9 218.791 450.544 216.377 451.159 211.707C451.706 207.47 450.567 200.318 446.285 198.268C442.002 196.218 438.54 199.543 438.836 204.304Z" fill="#FF8B7B"/>
<path d="M444.895 398.95C444.895 398.95 426.672 521.387 416.718 567.264C405.806 617.491 347.173 783.663 347.173 783.663L318.495 777.445C318.495 777.445 359.497 642.001 368.608 571.774C375.67 517.833 389.542 398.905 389.542 398.905L444.895 398.95Z" fill="#FFA500"/>
<path d="M354.053 774.119C354.167 774.119 348.7 784.506 348.7 784.506L316.445 777.513L319.156 767.809L354.053 774.119Z" fill="#263238"/>
<path opacity="0.3" d="M433.392 442.572C412.367 446.694 414.599 525.1 417.128 565.441C423.187 536.922 432.071 482.07 438.13 443.141C436.662 442.416 434.99 442.215 433.392 442.572Z" fill="black"/>
<path d="M475.305 398.95C475.305 398.95 477.583 518.744 475.761 567.514C473.938 618.334 456.194 784.734 456.194 784.734H429.041C429.041 784.734 428.062 621.295 426.763 571.386C425.442 516.99 418.882 398.859 418.882 398.859L475.305 398.95Z" fill="#FFA500"/>
<path d="M461.41 774.028C461.547 774.028 459.884 785.281 459.884 785.281H426.877L425.966 775.235L461.41 774.028Z" fill="#263238"/>
<path d="M445.897 280.955C438.22 301.661 483.345 326.057 483.345 326.057L502.89 301.001C502.89 301.001 489.746 274.987 473.801 263.279C454.097 248.837 451.751 265.192 445.897 280.955Z" fill="#FFA500"/>
<path opacity="0.4" d="M445.897 280.955C438.22 301.661 483.345 326.057 483.345 326.057L502.89 301.001C502.89 301.001 489.746 274.987 473.801 263.279C454.097 248.837 451.751 265.192 445.897 280.955Z" fill="black"/>
<path d="M269.087 123.758C223.684 123.758 186.878 100.301 186.878 71.3663C186.878 42.4312 223.684 18.9747 269.087 18.9747C314.49 18.9747 351.296 42.4312 351.296 71.3663C351.296 100.301 314.49 123.758 269.087 123.758Z" fill="#FFA500"/>
<path d="M298.745 97.7443C304.161 97.7268 309.397 95.8013 313.534 92.3061C317.671 88.8109 320.443 83.9695 321.365 78.6328C322.271 72.8521 320.967 66.9422 317.712 62.0795C314.458 57.2168 309.492 53.758 303.802 52.3915C299.133 51.3156 294.244 51.7303 289.823 53.5772C285.402 55.424 281.671 58.6102 279.155 62.6875L226.377 51.7992C224.348 51.355 222.227 51.6923 220.437 52.7438C218.646 53.7952 217.318 55.4834 216.718 57.4712C216.442 58.5162 216.382 59.6066 216.541 60.6758C216.701 61.7449 217.077 62.7702 217.646 63.6891C218.215 64.608 218.966 65.4012 219.852 66.0201C220.738 66.6391 221.742 67.0708 222.8 67.2889L224.167 67.5623C224.37 67.5987 224.562 67.6813 224.728 67.8037C224.894 67.9262 225.029 68.0852 225.124 68.2684C225.208 68.4545 225.252 68.6564 225.252 68.8606C225.252 69.0649 225.208 69.2668 225.124 69.4529L224.19 71.8675C223.877 72.6501 223.847 73.5174 224.104 74.3199C224.362 75.1224 224.892 75.8098 225.602 76.2638C226.162 76.6098 226.636 77.0789 226.987 77.6354C227.338 78.192 227.558 78.8213 227.629 79.4756C227.696 80.2265 227.999 80.9371 228.494 81.5057C228.989 82.0743 229.651 82.472 230.386 82.6419L231.456 82.8697C232.198 83.0068 232.965 82.9041 233.645 82.5765C234.325 82.2488 234.882 81.7133 235.238 81.0474C235.71 80.2529 236.419 79.6257 237.266 79.2533C238.112 78.8809 239.053 78.7818 239.958 78.9699C240.863 79.1579 241.687 79.6238 242.315 80.3024C242.943 80.9811 243.344 81.8387 243.461 82.7558C243.524 83.5019 243.823 84.2085 244.314 84.7736C244.806 85.3387 245.464 85.7329 246.194 85.8993L247.265 86.1271C248.007 86.2606 248.772 86.1563 249.451 85.829C250.13 85.5017 250.688 84.9683 251.046 84.3048C251.387 83.7398 251.847 83.2557 252.394 82.886C252.94 82.5163 253.561 82.2698 254.212 82.1635C255.088 82.0581 255.896 81.6366 256.483 80.9781C257.07 80.3197 257.397 79.4695 257.401 78.5872V75.9904C257.411 75.7873 257.464 75.5885 257.557 75.4078C257.65 75.227 257.781 75.0685 257.941 74.943C258.101 74.8176 258.286 74.7282 258.484 74.6809C258.682 74.6337 258.888 74.6297 259.087 74.6693L275.921 78.1317C276.607 82.7953 278.714 87.1342 281.954 90.5579C285.195 93.9816 289.411 96.3238 294.03 97.266C295.582 97.5832 297.161 97.7435 298.745 97.7443ZM303.301 54.4644C308.468 55.6712 312.985 58.7908 315.944 63.1949C318.902 67.5991 320.082 72.9606 319.246 78.2C318.35 83.0744 315.74 87.4672 311.886 90.5839C308.033 93.7005 303.191 95.3351 298.237 95.192C293.283 95.0489 288.544 93.1375 284.877 89.8036C281.21 86.4697 278.857 81.9335 278.244 77.0155V76.1954L259.679 72.4369C259.147 72.3081 258.592 72.2995 258.056 72.4117C257.52 72.5239 257.015 72.7541 256.579 73.0857C256.143 73.4172 255.786 73.8417 255.534 74.3284C255.282 74.8151 255.142 75.3517 255.124 75.8993V78.4961C255.118 78.8053 255.007 79.1033 254.808 79.3398C254.609 79.5763 254.334 79.7369 254.03 79.7945C253.034 79.9372 252.084 80.3046 251.251 80.869C250.419 81.4333 249.725 82.1798 249.224 83.0519C249.103 83.2977 248.909 83.4999 248.668 83.6305C248.427 83.7611 248.152 83.8136 247.88 83.7808L246.832 83.553C246.566 83.4847 246.33 83.3325 246.158 83.1192C245.985 82.9058 245.886 82.6426 245.875 82.3685C245.732 80.9505 245.141 79.6149 244.189 78.5546C243.236 77.4943 241.971 76.7644 240.576 76.4703C239.182 76.1761 237.73 76.333 236.43 76.9183C235.131 77.5036 234.051 78.4869 233.347 79.7262C233.23 79.9702 233.04 80.1716 232.803 80.3023C232.566 80.4329 232.294 80.4864 232.026 80.4551L230.932 80.2273C230.671 80.1548 230.439 80.0009 230.272 79.7879C230.104 79.5749 230.008 79.3139 229.998 79.0428C229.886 78.0427 229.546 77.0816 229.005 76.2328C228.464 75.384 227.737 74.67 226.878 74.1454C226.627 73.9643 226.443 73.7046 226.357 73.4075C226.27 73.1104 226.285 72.7929 226.399 72.5053L227.333 70.0907C227.526 69.5929 227.608 69.059 227.574 68.5262C227.539 67.9934 227.389 67.4746 227.133 67.006C226.877 66.5374 226.521 66.1304 226.092 65.8134C225.662 65.4963 225.169 65.2769 224.645 65.1705L223.256 64.8743C222.504 64.714 221.792 64.4036 221.163 63.9618C220.533 63.5199 220 62.9557 219.594 62.3028C219.187 61.65 218.917 60.9219 218.799 60.1622C218.68 59.4024 218.717 58.6267 218.905 57.8812C219.35 56.4477 220.32 55.2353 221.621 54.4875C222.923 53.7397 224.459 53.5117 225.921 53.8493L280.18 65.1249L280.59 64.4187C282.77 60.5378 286.155 57.4719 290.231 55.6843C294.308 53.8967 298.855 53.4845 303.187 54.5099L303.301 54.4644ZM298.745 89.2706C301.575 89.3021 304.352 88.5107 306.741 86.9927C309.565 85.1382 311.659 82.3615 312.666 79.1358C313.672 75.9102 313.529 72.4353 312.26 69.3036C310.991 66.1719 308.675 63.5772 305.707 61.9619C302.739 60.3466 299.303 59.8107 295.984 60.4455C292.665 61.0802 289.669 62.8465 287.507 65.443C285.345 68.0396 284.15 71.3057 284.126 74.6847C284.103 78.0636 285.252 81.3461 287.378 83.9727C289.503 86.5992 292.474 88.4072 295.784 89.0883C296.753 89.2638 297.738 89.3401 298.722 89.3161L298.745 89.2706ZM298.745 62.3686C299.594 62.3735 300.44 62.4574 301.274 62.6192C302.861 62.9572 304.365 63.6045 305.702 64.5241C307.039 65.4437 308.181 66.6176 309.065 67.9787C309.948 69.3398 310.554 70.8616 310.849 72.4571C311.144 74.0526 311.122 75.6905 310.784 77.2775C310.446 78.8644 309.799 80.3692 308.879 81.7059C307.959 83.0427 306.786 84.1853 305.424 85.0684C304.063 85.9515 302.541 86.5578 300.946 86.8528C299.35 87.1478 297.713 87.1257 296.126 86.7876C293.743 86.2917 291.561 85.1016 289.854 83.3673C288.147 81.633 286.992 79.4322 286.534 77.0424C286.076 74.6525 286.336 72.1805 287.281 69.9381C288.226 67.6956 289.813 65.7831 291.843 64.4415C293.86 63.1003 296.232 62.3942 298.654 62.4142L298.745 62.3686Z" fill="white"/>
<path opacity="0.6" d="M335.989 154.487C321.068 154.487 308.973 146.777 308.973 137.266C308.973 127.755 321.068 120.045 335.989 120.045C350.909 120.045 363.004 127.755 363.004 137.266C363.004 146.777 350.909 154.487 335.989 154.487Z" fill="#FFA500"/>
<path opacity="0.3" d="M378.973 161.548C372.846 161.548 367.879 158.387 367.879 154.487C367.879 150.587 372.846 147.425 378.973 147.425C385.099 147.425 390.066 150.587 390.066 154.487C390.066 158.387 385.099 161.548 378.973 161.548Z" fill="#FFA500"/>
</svg>
