<svg width="100" height="75" viewBox="0 0 100 75" fill="none" xmlns="http://www.w3.org/2000/svg">
<g filter="url(#filter0_d)">
<path fill-rule="evenodd" clip-rule="evenodd" d="M66.9243 13.7814L81.7593 28.6164C82.9264 29.7836 83.5714 31.35 83.5714 32.9779V39.6429C83.5714 43.0214 80.8071 45.7857 77.4286 45.7857C77.4286 50.8843 73.3129 55 68.2143 55C63.1157 55 59 50.8843 59 45.7857H40.5714C40.5714 50.8843 36.4557 55 31.3571 55C26.2586 55 22.1429 50.8843 22.1429 45.7857C18.7643 45.7857 16 43.0214 16 39.6429V18.1429C16 14.7336 18.7643 12 22.1429 12H62.5936C64.2214 12 65.7879 12.645 66.9243 13.7814ZM22.1429 21.2143V27.3572C22.1429 29.0464 23.5251 30.4286 25.2143 30.4286H34.4286V18.1429H25.2143C23.5251 18.1429 22.1429 19.525 22.1429 21.2143ZM31.3572 49.625C29.2379 49.625 27.5179 47.905 27.5179 45.7857C27.5179 43.6664 29.2379 41.9464 31.3572 41.9464C33.4765 41.9464 35.1965 43.6664 35.1965 45.7857C35.1965 47.905 33.4765 49.625 31.3572 49.625ZM40.5712 30.4286H52.857V18.1429H40.5712V30.4286ZM68.2143 49.625C66.095 49.625 64.375 47.905 64.375 45.7857C64.375 43.6664 66.095 41.9464 68.2143 41.9464C70.3336 41.9464 72.0536 43.6664 72.0536 45.7857C72.0536 47.905 70.3336 49.625 68.2143 49.625ZM59 18.1429V30.4286H74.3571L62.0714 18.1429H59Z" fill="#FFA500"/>
</g>
<defs>
<filter id="filter0_d" x="0" y="0" width="99.5714" height="75" filterUnits="userSpaceOnUse" color-interpolation-filters="sRGB">
<feFlood flood-opacity="0" result="BackgroundImageFix"/>
<feColorMatrix in="SourceAlpha" type="matrix" values="0 0 0 0 0 0 0 0 0 0 0 0 0 0 0 0 0 0 127 0"/>
<feOffset dy="4"/>
<feGaussianBlur stdDeviation="8"/>
<feColorMatrix type="matrix" values="0.376471 0 0 0 0 0.996078 0 0 0 0 0.25 0 0 0 0 0 0 0 1 0"/>
<feBlend mode="normal" in2="BackgroundImageFix" result="effect1_dropShadow"/>
<feBlend mode="normal" in="SourceGraphic" in2="effect1_dropShadow" result="shape"/>
</filter>
</defs>
</svg>
