<svg width="81" height="90" viewBox="0 0 81 90" fill="none" xmlns="http://www.w3.org/2000/svg">
<g filter="url(#filter0_d)">
<path fill-rule="evenodd" clip-rule="evenodd" d="M41.8903 26.3827C43.7625 25.7408 45.1533 23.9756 45.3673 21.9964C45.501 20.7393 45.2336 19.5625 44.6184 18.5996L41.1949 12.662C40.6867 11.7793 39.4029 11.7793 38.868 12.662L35.4445 18.5996C34.9898 19.402 34.7223 20.3381 34.7223 21.3545C34.7223 24.8849 38.1993 27.6398 41.8903 26.3827ZM52.1875 53.2359L49.5129 50.5613L46.6243 53.4231C43.1473 56.9001 37.0492 56.9268 33.5455 53.4231L30.6836 50.5613L27.7683 53.4231C26.0298 55.1616 23.7029 56.1245 21.2422 56.1245C19.2898 56.1245 17.4978 55.5093 16 54.493V64.1483C16 67.0904 18.4072 69.4975 21.3492 69.4975H58.7938C61.7359 69.4975 64.143 67.0904 64.143 64.1483V54.493C62.1371 55.857 59.5694 56.4989 56.8146 55.8837C55.0494 55.5093 53.4713 54.5197 52.1875 53.2359ZM42.7461 34.7275H56.1192C60.5591 34.7275 64.143 38.3115 64.1163 42.7781V46.5761C64.1163 49.2507 62.2441 51.7381 59.5962 52.0858C57.9379 52.2997 56.3332 51.7648 55.1831 50.6147L49.4862 44.9178L43.7625 50.6147C41.7298 52.6474 38.3865 52.6474 36.3538 50.6147L30.6569 44.9178L24.9332 50.6147C23.5692 52.0055 21.4562 52.487 19.5037 51.8451C17.3373 51.1229 16 48.9297 16 46.6563V42.7514C16 38.3115 19.584 34.7275 24.0238 34.7275H37.3969V32.0529C37.3969 30.5819 38.6005 29.3783 40.0715 29.3783C41.5426 29.3783 42.7461 30.5819 42.7461 32.0529V34.7275Z" fill="#FFA500"/>
</g>
<defs>
<filter id="filter0_d" x="0" y="0" width="80.143" height="89.4975" filterUnits="userSpaceOnUse" color-interpolation-filters="sRGB">
<feFlood flood-opacity="0" result="BackgroundImageFix"/>
<feColorMatrix in="SourceAlpha" type="matrix" values="0 0 0 0 0 0 0 0 0 0 0 0 0 0 0 0 0 0 127 0"/>
<feOffset dy="4"/>
<feGaussianBlur stdDeviation="8"/>
<feColorMatrix type="matrix" values="0.376471 0 0 0 0 0.996078 0 0 0 0 0.25 0 0 0 0 0 0 0 1 0"/>
<feBlend mode="normal" in2="BackgroundImageFix" result="effect1_dropShadow"/>
<feBlend mode="normal" in="SourceGraphic" in2="effect1_dropShadow" result="shape"/>
</filter>
</defs>
</svg>
