<svg width="78" height="78" viewBox="0 0 78 78" fill="none" xmlns="http://www.w3.org/2000/svg">
<g filter="url(#filter0_d)">
<path fill-rule="evenodd" clip-rule="evenodd" d="M16 35C16 22.304 26.304 12 39 12C51.696 12 62 22.304 62 35C62 47.696 51.696 58 39 58C26.304 58 16 47.696 16 35ZM42.2427 50.341V49.007C46.2447 48.248 49.3957 45.948 49.4417 41.739C49.4417 35.943 44.4737 33.942 39.8277 32.746C35.1817 31.55 33.6867 30.285 33.6867 28.353C33.6867 26.145 35.7567 24.581 39.2067 24.581C42.1047 24.581 43.5537 25.708 44.0827 27.456C44.3127 28.284 45.0027 28.882 45.8537 28.882H46.4517C47.8087 28.882 48.7747 27.548 48.3147 26.283C47.4407 23.845 45.4397 21.867 42.2657 21.085V19.659C42.2657 17.98 40.8857 16.6 39.2067 16.6H39.1837C37.5047 16.6 36.1247 17.98 36.1247 19.659V21.039C32.1687 21.89 28.9717 24.466 28.9717 28.422C28.9717 33.137 32.8817 35.483 38.5857 36.863C43.7147 38.082 44.7267 39.876 44.7267 41.785C44.7267 43.188 43.7147 45.442 39.2067 45.442C35.8487 45.442 34.1007 44.246 33.4337 42.521C33.1117 41.716 32.4217 41.141 31.5707 41.141H31.0187C29.6387 41.141 28.6497 42.544 29.1787 43.809C30.3287 46.638 33.0427 48.317 36.1017 48.961V50.341C36.1017 52.02 37.4817 53.4 39.1607 53.4H39.1837C40.8627 53.4 42.2427 52.02 42.2427 50.341Z" fill="#FFA500"/>
</g>
<defs>
<filter id="filter0_d" x="0" y="0" width="78" height="78" filterUnits="userSpaceOnUse" color-interpolation-filters="sRGB">
<feFlood flood-opacity="0" result="BackgroundImageFix"/>
<feColorMatrix in="SourceAlpha" type="matrix" values="0 0 0 0 0 0 0 0 0 0 0 0 0 0 0 0 0 0 127 0"/>
<feOffset dy="4"/>
<feGaussianBlur stdDeviation="8"/>
<feColorMatrix type="matrix" values="0.376471 0 0 0 0 0.996078 0 0 0 0 0.25 0 0 0 0 0 0 0 1 0"/>
<feBlend mode="normal" in2="BackgroundImageFix" result="effect1_dropShadow"/>
<feBlend mode="normal" in="SourceGraphic" in2="effect1_dropShadow" result="shape"/>
</filter>
</defs>
</svg>
