<svg width="15" height="21" viewBox="0 0 15 21" fill="none" xmlns="http://www.w3.org/2000/svg">
<path fill-rule="evenodd" clip-rule="evenodd" d="M7.05 0C3.16243 0 0 3.16243 0 7.05C0 9.447 1.1985 11.5519 3.02143 12.831V15.1071C3.02143 15.6611 3.47464 16.1143 4.02857 16.1143H10.0714C10.6254 16.1143 11.0786 15.6611 11.0786 15.1071V12.831C12.9015 11.5519 14.1 9.447 14.1 7.05C14.1 3.16243 10.9376 0 7.05 0ZM4.02862 19.1357C4.02862 19.6896 4.48183 20.1428 5.03576 20.1428H9.06433C9.61826 20.1428 10.0715 19.6896 10.0715 19.1357V18.1285H4.02862V19.1357ZM9.06405 11.7836L9.92013 11.1793C11.2798 10.2326 12.0855 8.69167 12.0855 7.05002C12.0855 4.27031 9.82948 2.01431 7.04977 2.01431C4.27005 2.01431 2.01405 4.27031 2.01405 7.05002C2.01405 8.69167 2.81977 10.2326 4.17941 11.1793L5.03548 11.7836V14.1H9.06405V11.7836Z" fill="#FFA500"/>
</svg>
