<svg width="61" height="70" viewBox="0 0 61 70" fill="none" xmlns="http://www.w3.org/2000/svg">
<g filter="url(#filter0_d)">
<path d="M29.2 7.04255C18.8433 7.71893 11 16.861 11 27.3121V41.9088C11 45.5307 13.9033 48.4544 17.5 48.4544H19.6667C22.05 48.4544 24 46.4907 24 44.0907V35.3632C24 32.9631 22.05 30.9995 19.6667 30.9995H15.3333V27.2685C15.3333 18.8901 21.7467 11.6027 30.045 11.3626C38.6467 11.1226 45.6667 18.0392 45.6667 26.6357V30.9995H41.3333C38.95 30.9995 37 32.9631 37 35.3632V44.0907C37 46.4907 38.95 48.4544 41.3333 48.4544H45.6667V50.6363H32.6667C31.475 50.6363 30.5 51.6181 30.5 52.8181C30.5 54.0182 31.475 55 32.6667 55H43.5C47.0967 55 50 52.0763 50 48.4544V26.6357C50 15.3555 40.5533 6.30072 29.2 7.04255Z" fill="#FFA500"/>
</g>
<defs>
<filter id="filter0_d" x="0" y="0" width="61" height="70" filterUnits="userSpaceOnUse" color-interpolation-filters="sRGB">
<feFlood flood-opacity="0" result="BackgroundImageFix"/>
<feColorMatrix in="SourceAlpha" type="matrix" values="0 0 0 0 0 0 0 0 0 0 0 0 0 0 0 0 0 0 127 0"/>
<feOffset dy="4"/>
<feGaussianBlur stdDeviation="5.5"/>
<feColorMatrix type="matrix" values="0.376471 0 0 0 0 0.996078 0 0 0 0 0.25 0 0 0 0 0 0 0 1 0"/>
<feBlend mode="normal" in2="BackgroundImageFix" result="effect1_dropShadow"/>
<feBlend mode="normal" in="SourceGraphic" in2="effect1_dropShadow" result="shape"/>
</filter>
</defs>
</svg>
