<svg width="67" height="77" viewBox="0 0 67 77" fill="none" xmlns="http://www.w3.org/2000/svg">
<g filter="url(#filter0_d)">
<path fill-rule="evenodd" clip-rule="evenodd" d="M13.975 15.2063L31.475 7.43125C32.75 6.85625 34.25 6.85625 35.525 7.43125L53.025 15.2063C54.825 16.0063 56 17.8063 56 19.7813V31.5313C56 45.4063 46.4 58.3813 33.5 61.5313C20.6 58.3813 11 45.4063 11 31.5313V19.7813C11 17.8063 12.175 16.0063 13.975 15.2063ZM20.2499 38.2814L26.7249 44.7563C27.6999 45.7313 29.2999 45.7313 30.2499 44.7563L46.7249 28.2814C47.6999 27.3064 47.6999 25.7313 46.7249 24.7564C45.7499 23.7814 44.1749 23.7814 43.1999 24.7564L28.4999 39.4564L23.7749 34.7564C22.7999 33.7814 21.2249 33.7814 20.2499 34.7564C19.7818 35.2234 19.5187 35.8576 19.5187 36.5189C19.5187 37.1801 19.7818 37.8143 20.2499 38.2814Z" fill="#FFA500"/>
</g>
<defs>
<filter id="filter0_d" x="0" y="0" width="67" height="76.5313" filterUnits="userSpaceOnUse" color-interpolation-filters="sRGB">
<feFlood flood-opacity="0" result="BackgroundImageFix"/>
<feColorMatrix in="SourceAlpha" type="matrix" values="0 0 0 0 0 0 0 0 0 0 0 0 0 0 0 0 0 0 127 0"/>
<feOffset dy="4"/>
<feGaussianBlur stdDeviation="5.5"/>
<feColorMatrix type="matrix" values="0.376471 0 0 0 0 0.996078 0 0 0 0 0.25 0 0 0 0 0 0 0 1 0"/>
<feBlend mode="normal" in2="BackgroundImageFix" result="effect1_dropShadow"/>
<feBlend mode="normal" in="SourceGraphic" in2="effect1_dropShadow" result="shape"/>
</filter>
</defs>
</svg>
