<svg width="48" height="46" viewBox="0 0 48 46" fill="none" xmlns="http://www.w3.org/2000/svg">
<g filter="url(#filter0_d)">
<path d="M17.25 32C14.9312 31.9905 12.8899 30.4961 12.2175 28.3159H9V25.3686H12.2175C12.9899 22.8236 15.6031 21.2707 18.256 21.7803C20.909 22.2899 22.7345 24.6953 22.4743 27.3387C22.214 29.9821 19.9532 31.9993 17.25 32ZM17.25 24.6318C16.0074 24.6318 15 25.6214 15 26.8422C15 28.063 16.0074 29.0527 17.25 29.0527C18.4926 29.0527 19.5 28.063 19.5 26.8422C19.5 25.6214 18.4926 24.6318 17.25 24.6318ZM39 28.3159H24V25.3686H39V28.3159ZM30.75 23.1581C28.0468 23.1574 25.786 21.1403 25.5257 18.4969C25.2655 15.8535 27.091 13.448 29.744 12.9384C32.3969 12.4288 35.0101 13.9817 35.7825 16.5267H39V19.474H35.7825C35.1101 21.6542 33.0688 23.1486 30.75 23.1581ZM30.75 15.7899C29.5074 15.7899 28.5 16.7795 28.5 18.0004C28.5 19.2212 29.5074 20.2108 30.75 20.2108C31.9926 20.2108 33 19.2212 33 18.0004C33 16.7795 31.9926 15.7899 30.75 15.7899ZM24 19.474H9V16.5267H24V19.474ZM20.25 14.3162C17.5468 14.3156 15.286 12.2984 15.0257 9.65498C14.7655 7.01158 16.591 4.60615 19.244 4.09656C21.8969 3.58696 24.5101 5.1398 25.2825 7.68483H39V10.6321H25.2825C24.6097 12.8121 22.5687 14.3062 20.25 14.3162ZM20.25 6.94801C19.023 6.94964 18.0235 7.91682 18.0033 9.12214C17.9832 10.3275 18.9497 11.3264 20.176 11.3676C21.4024 11.4089 22.4362 10.4773 22.5 9.27342V9.70078V9.15848C22.5 7.93767 21.4926 6.94801 20.25 6.94801ZM13.5 10.6321H9V7.68483H13.5V10.6321Z" fill="#FFA500"/>
</g>
<defs>
<filter id="filter0_d" x="0" y="0" width="48" height="46" filterUnits="userSpaceOnUse" color-interpolation-filters="sRGB">
<feFlood flood-opacity="0" result="BackgroundImageFix"/>
<feColorMatrix in="SourceAlpha" type="matrix" values="0 0 0 0 0 0 0 0 0 0 0 0 0 0 0 0 0 0 127 0"/>
<feOffset dy="5"/>
<feGaussianBlur stdDeviation="4.5"/>
<feColorMatrix type="matrix" values="0 0 0 0 0 0 0 0 0 0.376471 0 0 0 0 0.996078 0 0 0 0.14 0"/>
<feBlend mode="normal" in2="BackgroundImageFix" result="effect1_dropShadow"/>
<feBlend mode="normal" in="SourceGraphic" in2="effect1_dropShadow" result="shape"/>
</filter>
</defs>
</svg>
