<svg width="1035" height="771" viewBox="0 0 1035 771" fill="none" xmlns="http://www.w3.org/2000/svg">
<path d="M1034.73 677.543H0V678.06H1034.73V677.543Z" fill="#E6E6E6"/>
<path d="M258.31 708.854H189.77V709.371H258.31V708.854Z" fill="#E6E6E6"/>
<path d="M168.082 708.854H128.369V709.371H168.082V708.854Z" fill="#E6E6E6"/>
<path d="M435.727 716.47H396.014V716.987H435.727V716.47Z" fill="#E6E6E6"/>
<path d="M642.797 728.017H553.417V728.535H642.797V728.017Z" fill="#E6E6E6"/>
<path d="M534.997 728.017H521.897V728.535H534.997V728.017Z" fill="#E6E6E6"/>
<path d="M938.192 716.47H744.324V716.987H938.192V716.47Z" fill="#E6E6E6"/>
<path d="M490.464 585.245H90.8712C87.7408 585.239 84.7405 583.992 82.5289 581.776C80.3173 579.561 79.0752 576.559 79.0752 573.428V11.7132C79.1024 8.60075 80.3566 5.62476 82.5652 3.43163C84.7739 1.23849 87.7586 0.00533175 90.8712 0H490.464C493.598 0 496.604 1.24497 498.82 3.46102C501.036 5.67707 502.281 8.68268 502.281 11.8166V573.428C502.281 576.562 501.036 579.568 498.82 581.784C496.604 584 493.598 585.245 490.464 585.245ZM90.8712 0.413895C87.878 0.419377 85.0093 1.61225 82.8947 3.73068C80.7802 5.84911 79.5926 8.72 79.5926 11.7132V573.428C79.5926 576.421 80.7802 579.292 82.8947 581.411C85.0093 583.529 87.878 584.722 90.8712 584.727H490.464C493.459 584.722 496.33 583.53 498.448 581.412C500.566 579.294 501.758 576.423 501.764 573.428V11.7132C501.758 8.7181 500.566 5.84726 498.448 3.72942C496.33 1.61158 493.459 0.419365 490.464 0.413895H90.8712Z" fill="#E6E6E6"/>
<path d="M938.109 585.245H538.495C535.363 585.239 532.361 583.993 530.146 581.778C527.931 579.563 526.684 576.56 526.679 573.428V11.7132C526.711 8.59886 527.97 5.6229 530.182 3.43033C532.394 1.23777 535.381 0.0052736 538.495 0H938.109C941.218 0.0107705 944.198 1.24633 946.402 3.43889C948.606 5.63144 949.857 8.60432 949.884 11.7132V573.428C949.884 576.555 948.645 579.554 946.438 581.769C944.231 583.984 941.236 585.234 938.109 585.245ZM538.495 0.413895C535.5 0.419365 532.629 1.61158 530.512 3.72942C528.394 5.84726 527.202 8.7181 527.196 11.7132V573.428C527.202 576.423 528.394 579.294 530.512 581.412C532.629 583.53 535.5 584.722 538.495 584.727H938.109C941.104 584.722 943.975 583.53 946.093 581.412C948.211 579.294 949.403 576.423 949.408 573.428V11.7132C949.403 8.7181 948.211 5.84726 946.093 3.72942C943.975 1.61158 941.104 0.419365 938.109 0.413895H538.495Z" fill="#E6E6E6"/>
<path d="M553.375 500.769H507.867V681.289H553.375V500.769Z" fill="#E0E0E0"/>
<path d="M544.724 681.289H553.375V656.703H535.66L544.724 681.289Z" fill="#FAFAFA"/>
<path d="M353.962 500.769H308.454V681.289H353.962V500.769Z" fill="#E0E0E0"/>
<path d="M553.375 500.769H346.429V666.202H553.375V500.769Z" fill="#FAFAFA"/>
<path d="M545.863 508.902V552.671H353.879V508.902H545.801H545.863ZM546.608 508.095H353.134V553.458H546.67V508.095H546.608Z" fill="#E0E0E0"/>
<path d="M355.058 681.289H346.429V656.703H364.123L355.058 681.289Z" fill="#FAFAFA"/>
<path d="M445.329 530.776C445.329 531.681 445.597 532.565 446.1 533.317C446.602 534.069 447.317 534.656 448.152 535.002C448.988 535.348 449.908 535.439 450.795 535.262C451.682 535.086 452.497 534.65 453.137 534.01C453.776 533.371 454.212 532.556 454.388 531.669C454.565 530.782 454.474 529.862 454.128 529.026C453.782 528.191 453.196 527.476 452.444 526.974C451.691 526.471 450.807 526.203 449.903 526.203C448.69 526.203 447.526 526.685 446.669 527.542C445.811 528.4 445.329 529.563 445.329 530.776Z" fill="#E6E6E6"/>
<path d="M545.863 561.591V605.36H353.879V561.591H545.801H545.863ZM546.608 560.804H353.134V606.167H546.67V560.825L546.608 560.804Z" fill="#E0E0E0"/>
<path d="M445.329 583.589C445.329 584.494 445.597 585.378 446.1 586.13C446.602 586.882 447.317 587.468 448.152 587.815C448.988 588.161 449.908 588.251 450.795 588.075C451.682 587.898 452.497 587.463 453.137 586.823C453.776 586.184 454.212 585.369 454.388 584.482C454.565 583.594 454.474 582.675 454.128 581.839C453.782 581.003 453.196 580.289 452.444 579.786C451.691 579.284 450.807 579.016 449.903 579.016C448.69 579.016 447.526 579.498 446.669 580.355C445.811 581.213 445.329 582.376 445.329 583.589Z" fill="#E6E6E6"/>
<path d="M545.863 614.3V658.09H353.879V614.3H545.801H545.863ZM546.608 613.493H353.134V658.876H546.67V613.493H546.608Z" fill="#E0E0E0"/>
<path d="M445.329 636.195C445.333 637.099 445.605 637.981 446.11 638.73C446.615 639.48 447.331 640.063 448.167 640.406C449.003 640.749 449.922 640.836 450.808 640.657C451.693 640.479 452.506 640.041 453.144 639.401C453.781 638.761 454.215 637.946 454.39 637.059C454.565 636.172 454.473 635.254 454.126 634.419C453.779 633.585 453.193 632.872 452.441 632.37C451.69 631.869 450.806 631.601 449.903 631.601C449.3 631.601 448.704 631.72 448.148 631.951C447.591 632.182 447.086 632.521 446.661 632.948C446.236 633.375 445.9 633.881 445.671 634.439C445.443 634.996 445.326 635.593 445.329 636.195Z" fill="#E6E6E6"/>
<path d="M326.168 395.93H280.66V681.309H326.168V395.93Z" fill="#E0E0E0"/>
<path d="M317.519 681.289H326.17V656.703H308.476L317.519 681.289Z" fill="#FAFAFA"/>
<path d="M156.099 395.93H110.592V681.309H156.099V395.93Z" fill="#E0E0E0"/>
<path d="M326.168 395.93H148.546V666.223H326.168V395.93Z" fill="#FAFAFA"/>
<path d="M318.511 403.546V464.74H156.203V403.546H318.511ZM319.463 402.614H155.21V465.63H319.422V402.635L319.463 402.614Z" fill="#E0E0E0"/>
<path d="M318.511 472.211V634.519H241.196V472.211H318.511ZM319.463 471.259H240.265V635.471H319.463V471.259Z" fill="#E0E0E0"/>
<path d="M233.519 472.211V634.519H156.203V472.211H233.519ZM234.45 471.259H155.21V635.471H234.408V471.259H234.45Z" fill="#E0E0E0"/>
<path d="M157.196 681.289H148.546V656.703H166.261L157.196 681.289Z" fill="#FAFAFA"/>
<path d="M232.773 434.174C232.768 435.083 233.034 435.974 233.537 436.732C234.039 437.49 234.755 438.082 235.594 438.433C236.433 438.784 237.358 438.878 238.25 438.703C239.143 438.528 239.963 438.092 240.608 437.45C241.253 436.809 241.692 435.99 241.871 435.098C242.05 434.207 241.96 433.282 241.613 432.441C241.266 431.601 240.677 430.882 239.921 430.376C239.165 429.87 238.276 429.6 237.367 429.6C236.152 429.6 234.986 430.082 234.125 430.939C233.264 431.796 232.778 432.959 232.773 434.174Z" fill="#E6E6E6"/>
<path d="M249.162 549.505C249.162 550.415 249.432 551.304 249.938 552.06C250.444 552.816 251.162 553.404 252.003 553.752C252.844 554.099 253.769 554.188 254.66 554.009C255.552 553.831 256.371 553.391 257.012 552.746C257.654 552.102 258.09 551.281 258.265 550.389C258.44 549.496 258.346 548.572 257.995 547.733C257.644 546.894 257.052 546.177 256.294 545.675C255.535 545.173 254.645 544.907 253.736 544.911C253.133 544.911 252.537 545.03 251.981 545.261C251.424 545.492 250.919 545.831 250.494 546.258C250.069 546.685 249.733 547.191 249.504 547.749C249.276 548.306 249.159 548.903 249.162 549.505Z" fill="#E6E6E6"/>
<path d="M216.404 549.505C216.408 550.409 216.68 551.291 217.185 552.04C217.69 552.79 218.406 553.373 219.242 553.716C220.078 554.059 220.997 554.146 221.883 553.968C222.769 553.789 223.582 553.352 224.219 552.711C224.857 552.071 225.29 551.256 225.465 550.369C225.64 549.483 225.548 548.564 225.201 547.729C224.854 546.895 224.268 546.182 223.517 545.68C222.765 545.179 221.882 544.911 220.978 544.911C220.376 544.911 219.779 545.03 219.223 545.261C218.667 545.492 218.162 545.831 217.737 546.258C217.312 546.685 216.975 547.191 216.747 547.749C216.518 548.306 216.402 548.903 216.404 549.505Z" fill="#E6E6E6"/>
<path d="M211.231 316.359H192.047C193.815 325.665 194.928 335.084 195.379 344.545C195.379 354.893 180.768 395.93 201.587 395.93C222.406 395.93 207.795 354.996 207.795 344.545C208.28 335.081 209.428 325.663 211.231 316.359Z" fill="#E0E0E0"/>
<path d="M138.241 358.328V370.745C138.263 377.401 140.917 383.779 145.624 388.485C150.331 393.192 156.708 395.846 163.365 395.868H175.781C182.438 395.846 188.815 393.192 193.522 388.485C198.229 383.779 200.883 377.401 200.905 370.745V358.328H138.241Z" fill="#F5F5F5"/>
<path d="M404.932 474.446C404.932 488.932 421.136 500.769 440.94 500.769H458.821C478.625 500.769 494.829 488.932 494.829 474.446H404.932Z" fill="#E0E0E0"/>
<path d="M878.715 453.213C867.871 462.07 852.888 478.274 839.189 501.08C830.042 516.27 824.537 532.122 822.116 553.189C822.116 529.39 822.26 503.832 822.343 479.702C825.096 473.494 831.387 459.173 835.898 447.874C850.943 410.147 856.593 400.855 870.106 368.323C888.173 324.865 906.674 273.418 901.376 277.536C890.573 285.917 849.184 363.419 844.714 374.511C832.53 404.113 824.997 435.422 822.385 467.327C822.385 444.563 822.55 423.868 822.633 407.809C822.923 355.431 823.812 338.523 824.247 333.308C825.923 330.659 827.889 327.576 829.048 325.92C838.775 311.848 842.52 299.886 851.667 278.902C864.664 249.205 875.839 196.454 872.569 199.103C858.952 210.196 848.232 233.994 834.118 264.354C820.005 294.713 824.04 312.158 821.246 338.068C820.667 343.159 820.212 362.363 819.88 388.956C816.238 360.604 809.368 341.938 796.847 324.968C781.45 304.087 766.55 289.994 755.624 282.627C744.697 275.26 774.497 326.541 788.735 348.85C801.421 368.799 813.113 386.369 819.777 403.691C819.425 439.761 819.26 485.414 819.26 527.859C815.99 508.53 810.651 487.69 803.532 471.569C794.964 452.199 781.802 422.481 771.31 412.403C768.806 409.982 782.278 467.782 790.929 483.137C799.579 498.493 805.932 513 811.375 521.712C812.637 523.782 816.859 531.584 819.26 536.095C819.26 587.976 819.549 633.753 820.005 649.336H822.24C822.095 645.321 822.053 618.915 822.116 583.982C827.517 565.026 839.851 543.379 850.033 523.637C861.125 502.259 889.559 444.418 878.715 453.213Z" fill="#E0E0E0"/>
<path d="M853.53 681.289H788.673L783.769 617.715H858.435L853.53 681.289Z" fill="#F0F0F0"/>
<path d="M863.255 625.123H778.924L776.523 603.663H865.676L863.255 625.123Z" fill="#F5F5F5"/>
<path d="M257.153 42.424H141.159V169.8H257.153V42.424Z" fill="#E0E0E0"/>
<path d="M269.714 42.424H149.892V169.8H269.714V42.424Z" fill="#F5F5F5"/>
<path d="M259.677 159.763V52.4609L159.929 52.4609V159.763H259.677Z" fill="white"/>
<path d="M235.484 133.729V78.4534H184.1V133.729H235.484Z" fill="#F5F5F5"/>
<path d="M848.583 57.2621H740.826V175.594H848.583V57.2621Z" fill="#E0E0E0"/>
<path d="M860.257 57.2621H748.961V175.594H860.257V57.2621Z" fill="#F5F5F5"/>
<path d="M850.943 166.261V66.5954H758.293V166.261H850.943Z" fill="white"/>
<path d="M804.608 145.339C820.574 145.339 833.518 132.395 833.518 116.428C833.518 100.461 820.574 87.5177 804.608 87.5177C788.641 87.5177 775.697 100.461 775.697 116.428C775.697 132.395 788.641 145.339 804.608 145.339Z" fill="#F5F5F5"/>
<path d="M377.658 118.373H291.609V212.865H377.658V118.373Z" fill="#E0E0E0"/>
<path d="M386.97 118.373H298.086V212.865H386.97V118.373Z" fill="#F5F5F5"/>
<path d="M379.52 205.415V125.823H305.536V205.415H379.52Z" fill="white"/>
<path d="M342.539 145.483L322.3 180.54H362.779L342.539 145.483Z" fill="#F5F5F5"/>
<path d="M517.367 771C738.97 771 918.616 760.512 918.616 747.574C918.616 734.636 738.97 724.147 517.367 724.147C295.763 724.147 116.118 734.636 116.118 747.574C116.118 760.512 295.763 771 517.367 771Z" fill="#F5F5F5"/>
<path d="M722.761 224.392L702.232 216.114C702.232 216.114 675.143 265.512 667.383 268.016C656.828 271.41 634.975 280.847 622.02 282.503C620.261 284.572 617.384 291.008 617.653 293.347C635.058 299.162 673.301 291.443 681.496 285.359C700.142 271.555 722.761 224.392 722.761 224.392Z" fill="#E58A7B"/>
<path d="M729.074 213.155C732.902 227.289 712.166 255.724 712.166 255.724L684.994 240.493C684.994 240.493 690.085 228.8 696.293 216.901C706.248 197.675 724.707 197.034 729.074 213.155Z" fill="#FFA500"/>
<path opacity="0.2" d="M729.074 213.155C732.902 227.289 712.166 255.724 712.166 255.724L684.994 240.493C684.994 240.493 690.085 228.8 696.293 216.901C706.248 197.675 724.707 197.034 729.074 213.155Z" fill="black"/>
<path opacity="0.2" d="M695.775 246.577L706.475 252.578L708.358 219.736C702.129 224.516 697.741 238.92 695.775 246.577Z" fill="black"/>
<path d="M711.192 202.518C711.192 202.518 690.042 249.578 702.376 337.199H785.714C787.038 324.409 782.651 261.994 798.523 201.731C789.381 199.945 780.132 198.763 770.834 198.193C759.041 197.509 747.218 197.509 735.425 198.193C727.25 199.023 719.15 200.469 711.192 202.518Z" fill="#FFA500"/>
<path opacity="0.2" d="M711.192 202.518C711.192 202.518 690.042 249.578 702.376 337.199H785.714C787.038 324.409 782.651 261.994 798.523 201.731C789.381 199.945 780.132 198.763 770.834 198.193C759.041 197.509 747.218 197.509 735.425 198.193C727.25 199.023 719.15 200.469 711.192 202.518Z" fill="black"/>
<g style="mix-blend-mode:multiply">
<path d="M691.864 749.436C691.739 751.671 723.34 753.472 762.432 753.472C801.525 753.472 833.353 751.671 833.477 749.436C833.601 747.201 802.021 745.421 762.908 745.421C723.795 745.421 692.009 747.222 691.864 749.436Z" fill="#E8ECF1"/>
</g>
<path d="M747.493 690.71L732.712 696.432L745.444 729.324L760.225 723.602L747.493 690.71Z" fill="#E58A7B"/>
<path d="M813.405 733.522H797.822L792.11 697.451H807.693L813.405 733.522Z" fill="#E58A7B"/>
<path d="M796.745 731.722H814.252C814.556 731.722 814.85 731.831 815.081 732.028C815.312 732.225 815.466 732.498 815.515 732.798L817.77 746.642C817.818 746.99 817.79 747.343 817.689 747.679C817.588 748.015 817.415 748.324 817.184 748.588C816.952 748.851 816.666 749.061 816.346 749.204C816.026 749.346 815.679 749.419 815.329 749.416C809.224 749.312 806.285 748.94 798.587 748.94C793.847 748.94 784.1 749.436 777.519 749.436C770.938 749.436 770.504 742.98 773.215 742.379C785.383 739.751 790.102 736.171 794.158 732.694C794.873 732.066 795.793 731.72 796.745 731.722Z" fill="#263238"/>
<path d="M745.009 726.382L761.565 721.54C761.86 721.456 762.175 721.477 762.457 721.597C762.74 721.718 762.972 721.931 763.117 722.202L769.325 734.619C769.469 734.934 769.543 735.277 769.541 735.623C769.539 735.969 769.461 736.311 769.314 736.625C769.166 736.938 768.951 737.215 768.685 737.437C768.419 737.659 768.108 737.82 767.773 737.909C761.751 739.565 757.715 740.579 750.182 742.772C744.988 744.283 739.69 746.746 734.558 748.381C730.999 749.519 722.638 749.56 718.313 749.56C711.918 749.56 710.49 742.814 713.242 742.503C720.175 741.738 721.106 742.09 724.935 740.165C731.199 737.427 736.877 733.506 741.656 728.617C742.558 727.59 743.714 726.819 745.009 726.382Z" fill="#263238"/>
<path d="M624.629 282.42L607.493 275.239L600.437 294.237C607.46 295.306 614.605 295.306 621.628 294.237L624.629 282.42Z" fill="#E58A7B"/>
<path d="M594.744 274.742L594.289 287.366L600.435 294.195L607.492 275.197L594.744 274.742Z" fill="#E58A7B"/>
<path d="M749.52 693.504L734.693 699.228L741.26 716.236L756.087 710.512L749.52 693.504Z" fill="#CF6F64"/>
<path d="M807.693 697.451H792.11L795.07 716.056H810.653L807.693 697.451Z" fill="#CF6F64"/>
<path opacity="0.2" d="M699.729 313.503C700.039 317.249 700.391 321.078 700.846 325.01L762.806 304.894C772.482 302.027 780.891 295.946 786.646 287.656C786.894 282.13 787.205 276.315 787.681 270.251C787.888 267.313 788.136 264.291 788.405 261.229C788.674 258.166 789.047 254.772 789.44 251.502L699.729 313.503Z" fill="black"/>
<path d="M719.969 245.625L717.899 245.377C719.12 235.029 726.84 226.875 734.973 227.082V229.152C727.854 229.007 721.066 236.354 719.969 245.625Z" fill="white"/>
<path d="M730.996 264.726H730.645V262.657C737.763 262.926 744.448 255.496 745.545 246.246L747.614 246.494C746.517 256.614 739.047 264.726 730.996 264.726Z" fill="white"/>
<path d="M769.675 158.314C766.758 169.717 763.322 190.598 770.834 198.193C770.834 198.193 765.578 209.761 744.407 209.761C725.058 209.761 735.426 198.193 735.426 198.193C748.298 195.171 748.526 185.776 746.829 176.877L769.675 158.314Z" fill="#E58A7B"/>
<path d="M760.364 165.888L746.851 176.877C747.269 178.922 747.512 180.999 747.575 183.086C751.528 187.018 759.454 177.063 760.261 171.973C760.671 169.968 760.706 167.905 760.364 165.888Z" fill="#CF6F64"/>
<path d="M723.609 158.169C724.55 159.799 725.816 161.217 727.329 162.335C728.843 163.453 730.571 164.247 732.405 164.667C737.371 165.764 739.855 161.191 738.489 156.596C737.268 152.457 733.191 146.891 728.142 147.843C727.06 148.065 726.047 148.544 725.189 149.239C724.33 149.933 723.651 150.823 723.207 151.835C722.763 152.846 722.568 153.949 722.638 155.051C722.708 156.153 723.041 157.222 723.609 158.169Z" fill="#CF6F64"/>
<path d="M731.825 121.685C724.085 125.223 721.354 155.976 731.08 160.528C740.807 165.081 746.477 114.959 731.825 121.685Z" fill="#263238"/>
<path d="M772.035 141.158C770.172 156.596 769.965 165.681 761.688 173.587C759.122 176.21 755.882 178.074 752.325 178.971C748.767 179.869 745.031 179.767 741.528 178.675C738.025 177.583 734.892 175.544 732.475 172.784C730.058 170.023 728.451 166.649 727.831 163.032C725.327 149.167 728.783 126.258 744.263 120.112C747.515 118.677 751.092 118.139 754.623 118.552C758.153 118.965 761.509 120.315 764.342 122.462C767.175 124.609 769.382 127.475 770.735 130.762C772.088 134.05 772.537 137.639 772.035 141.158Z" fill="#E58A7B"/>
<path d="M746.602 129.673C758.067 126.755 766.49 124.768 763.468 134.308C759.474 147.056 754.673 159.39 761.109 159.949C765.041 160.301 782.425 152.933 780.21 145.463C778.286 138.965 786.419 137.185 787.867 133.894C793.227 121.974 777.893 123.547 780.624 116.304C783.356 109.061 768.207 97.389 759.93 103.204C746.457 112.6 723.341 112.455 735.489 96.9958C744.202 85.9656 728.66 88.2213 728.66 88.2213C728.66 88.2213 738.055 93.7882 722.245 102.397C705.523 111.586 720.858 136.274 746.602 129.673Z" fill="#263238"/>
<path d="M778.119 158.169C775.856 161.444 772.455 163.76 768.579 164.667C763.467 165.764 761.501 161.191 763.426 156.596C765.144 152.457 769.862 146.891 774.746 147.843C779.63 148.795 780.747 154.113 778.119 158.169Z" fill="#E58A7B"/>
<path d="M702.378 337.199C702.378 337.199 688.388 462.401 687.291 509.916C686.174 559.335 734.703 713.531 734.703 713.531L759.537 703.184C759.537 703.184 730.564 562.294 734.703 513.766C739.09 460.849 757.219 337.281 757.219 337.281L702.378 337.199Z" fill="#FFA500"/>
<path opacity="0.2" d="M737.144 371.572C725.989 394.709 733.502 440.465 739.544 467.575C741.841 448.432 744.573 427.655 747.16 408.43C746.912 378.878 744.615 356.051 737.144 371.572Z" fill="black"/>
<path d="M758.438 694.989C758.562 694.989 761.376 702.894 761.376 702.894L732.735 714.938L728.224 706.536L758.438 694.989Z" fill="#FFA500"/>
<path d="M731.949 337.199C731.949 337.199 742.648 456.276 749.726 500.873C757.507 549.733 788.011 712.455 788.011 712.455H816.549C816.549 712.455 799.455 553.685 796.227 505.301C792.709 452.82 785.714 337.199 785.714 337.199H731.949Z" fill="#FFA500"/>
<path d="M816.985 705.025C817.109 705.025 817.937 712.993 817.937 712.993H786.564L784.329 703.846L816.985 705.025Z" fill="#FFA500"/>
<path opacity="0.2" d="M806.057 695.589C805.992 695.589 805.93 695.567 805.88 695.525C805.831 695.483 805.798 695.425 805.788 695.361C805.622 693.912 790.205 550.498 787.308 507.04C784.162 459.897 777.83 355.327 777.767 354.272C777.765 354.237 777.769 354.203 777.78 354.17C777.791 354.138 777.809 354.108 777.833 354.083C777.856 354.057 777.884 354.037 777.916 354.023C777.947 354.01 777.981 354.003 778.016 354.003C778.084 354.003 778.149 354.028 778.199 354.074C778.249 354.12 778.28 354.183 778.285 354.251C778.285 355.306 784.68 459.794 787.825 507.019C790.722 550.478 806.14 693.788 806.285 695.34C806.291 695.375 806.289 695.41 806.281 695.443C806.272 695.477 806.257 695.508 806.235 695.536C806.214 695.563 806.187 695.586 806.156 695.602C806.125 695.618 806.092 695.628 806.057 695.63V695.589Z" fill="black"/>
<path d="M748.361 145.463C748.361 146.725 747.574 147.739 746.746 147.739C745.919 147.739 745.318 146.725 745.401 145.463C745.484 144.2 746.188 143.186 747.015 143.186C747.843 143.186 748.443 144.221 748.361 145.463Z" fill="#263238"/>
<path d="M734.165 145.463C734.165 146.725 733.358 147.739 732.551 147.739C731.744 147.739 731.123 146.725 731.185 145.463C731.247 144.2 731.992 143.186 732.82 143.186C733.648 143.186 734.248 144.221 734.165 145.463Z" fill="#263238"/>
<path d="M738.635 146.104C736.908 149.959 734.681 153.57 732.013 156.845C734.082 158.914 737.952 157.962 737.952 157.962L738.635 146.104Z" fill="#DF5753"/>
<path d="M739.006 163.239C738.958 163.24 738.91 163.23 738.866 163.211C738.822 163.192 738.782 163.164 738.749 163.129C738.716 163.094 738.691 163.053 738.675 163.008C738.658 162.963 738.651 162.915 738.654 162.867C738.659 162.766 738.703 162.671 738.776 162.602C738.849 162.533 738.946 162.494 739.047 162.494C740.63 162.505 742.195 162.162 743.628 161.488C745.06 160.815 746.323 159.829 747.325 158.604C747.397 158.541 747.489 158.507 747.584 158.507C747.679 158.507 747.771 158.541 747.842 158.604C747.909 158.673 747.947 158.766 747.947 158.862C747.947 158.959 747.909 159.052 747.842 159.121C746.77 160.424 745.42 161.47 743.891 162.182C742.362 162.895 740.693 163.256 739.006 163.239Z" fill="#263238"/>
<path d="M750.884 141.655C750.784 141.706 750.675 141.732 750.563 141.732C750.451 141.732 750.341 141.706 750.242 141.655C749.468 141.154 748.587 140.843 747.67 140.746C746.754 140.649 745.827 140.769 744.965 141.096C744.881 141.138 744.789 141.163 744.696 141.169C744.602 141.175 744.508 141.162 744.419 141.131C744.331 141.101 744.249 141.052 744.179 140.989C744.109 140.926 744.053 140.85 744.013 140.765C743.936 140.581 743.934 140.374 744.008 140.188C744.081 140.003 744.224 139.853 744.406 139.772C745.488 139.33 746.661 139.156 747.825 139.264C748.988 139.372 750.109 139.759 751.091 140.393C751.17 140.446 751.238 140.516 751.29 140.596C751.343 140.676 751.378 140.766 751.396 140.861C751.413 140.955 751.412 141.052 751.391 141.146C751.371 141.239 751.332 141.328 751.277 141.407C751.172 141.525 751.036 141.611 750.884 141.655Z" fill="#263238"/>
<path d="M728.68 137.516C728.57 137.489 728.469 137.432 728.39 137.35C728.321 137.283 728.267 137.202 728.229 137.114C728.192 137.025 728.173 136.929 728.173 136.833C728.173 136.737 728.192 136.641 728.229 136.552C728.267 136.464 728.321 136.383 728.39 136.316C729.183 135.426 730.171 134.732 731.277 134.287C732.382 133.841 733.576 133.658 734.764 133.75C734.859 133.764 734.951 133.798 735.032 133.85C735.114 133.901 735.184 133.969 735.238 134.048C735.292 134.128 735.33 134.218 735.348 134.312C735.366 134.407 735.365 134.504 735.344 134.598C735.299 134.79 735.186 134.958 735.026 135.073C734.866 135.187 734.67 135.239 734.474 135.219C733.534 135.16 732.593 135.315 731.721 135.674C730.85 136.032 730.072 136.584 729.446 137.288C729.351 137.393 729.23 137.47 729.095 137.51C728.96 137.55 728.816 137.552 728.68 137.516Z" fill="#263238"/>
<path d="M806.532 222.095L785.009 216.363C785.009 216.363 763.901 268.327 756.43 271.7C746.29 276.336 720.608 292.395 709.681 299.99C709.081 302.577 709.557 309.426 710.923 311.31C729.548 307.916 765.205 294.195 772.655 287.221C789.645 271.307 806.532 222.095 806.532 222.095Z" fill="#E58A7B"/>
<path d="M791.508 734.453C790.458 734.536 789.411 734.251 788.549 733.646C788.282 733.406 788.083 733.1 787.97 732.759C787.858 732.417 787.836 732.053 787.907 731.701C787.92 731.481 787.992 731.269 788.116 731.087C788.24 730.904 788.411 730.759 788.611 730.666C790.349 729.776 795.212 732.86 795.771 733.212C795.833 733.249 795.88 733.306 795.906 733.374C795.932 733.441 795.936 733.515 795.916 733.584C795.898 733.656 795.862 733.723 795.812 733.777C795.761 733.832 795.697 733.872 795.626 733.895C794.277 734.226 792.897 734.413 791.508 734.453ZM789.439 731.225C789.282 731.19 789.119 731.19 788.963 731.225C788.883 731.265 788.817 731.328 788.773 731.405C788.729 731.482 788.709 731.571 788.714 731.66C788.659 731.9 788.668 732.151 788.741 732.388C788.814 732.624 788.947 732.837 789.128 733.005C789.935 733.729 791.963 733.812 794.633 733.294C793.043 732.247 791.253 731.543 789.376 731.225H789.439Z" fill="#FFA500"/>
<path d="M795.523 733.895C795.469 733.912 795.411 733.912 795.357 733.895C793.805 733.025 790.887 729.611 791.322 727.872C791.387 727.597 791.543 727.351 791.764 727.175C791.985 726.998 792.26 726.901 792.543 726.9C792.821 726.863 793.103 726.886 793.371 726.968C793.639 727.05 793.886 727.189 794.095 727.376C795.813 728.845 795.916 733.356 795.916 733.584C795.926 733.652 795.913 733.722 795.88 733.781C795.846 733.841 795.793 733.888 795.73 733.915C795.66 733.929 795.588 733.922 795.523 733.895ZM792.75 727.583H792.605C792.129 727.583 792.067 727.852 792.046 727.955C791.798 728.969 793.64 731.556 795.171 732.777C795.164 731.029 794.623 729.325 793.619 727.893C793.379 727.684 793.068 727.573 792.75 727.583Z" fill="#FFA500"/>
<path d="M736.565 731.866C735.299 732.308 733.92 732.308 732.654 731.866C732.366 731.711 732.122 731.485 731.945 731.21C731.768 730.935 731.663 730.62 731.64 730.294C731.614 730.089 731.64 729.881 731.716 729.689C731.792 729.498 731.915 729.328 732.074 729.197C733.73 727.707 740.497 729.197 741.263 729.487C741.336 729.505 741.4 729.548 741.445 729.609C741.49 729.669 741.513 729.743 741.511 729.818C741.514 729.895 741.494 729.972 741.454 730.038C741.413 730.105 741.354 730.158 741.283 730.19C739.76 730.878 738.181 731.439 736.565 731.866ZM733.192 729.404C732.955 729.451 732.734 729.558 732.55 729.714C732.484 729.764 732.434 729.831 732.404 729.908C732.375 729.984 732.368 730.068 732.385 730.149C732.398 730.366 732.466 730.576 732.582 730.761C732.697 730.945 732.857 731.098 733.047 731.204C734.144 731.784 736.689 731.328 739.98 729.942C737.763 729.383 735.469 729.201 733.192 729.404Z" fill="#FFA500"/>
<path d="M741.223 730.19H741.057C738.988 729.818 734.849 727.438 734.725 725.658C734.725 725.244 734.911 724.665 735.904 724.334C736.24 724.214 736.596 724.164 736.952 724.185C737.307 724.206 737.655 724.299 737.974 724.458C740.209 725.555 741.388 729.528 741.45 729.714C741.465 729.777 741.463 729.842 741.445 729.904C741.427 729.965 741.393 730.021 741.347 730.066C741.316 730.117 741.273 730.159 741.223 730.19ZM736.318 724.954H736.111C735.47 725.182 735.47 725.451 735.47 725.534C735.47 726.61 738.47 728.576 740.561 729.238C740.079 727.576 739.06 726.121 737.663 725.099C737.248 724.888 736.769 724.836 736.318 724.954Z" fill="#FFA500"/>
<path d="M711.443 298.769L689.859 308.702L687.354 314.911L695.322 320.27C695.322 320.27 710.222 318.656 714.464 309.075L711.443 298.769Z" fill="#E58A7B"/>
<path d="M712.352 311.661C711.869 307.514 710.5 303.519 708.337 299.948L711.752 297.382C714.32 301.497 715.959 306.123 716.553 310.937L712.352 311.661Z" fill="#263238"/>
<path d="M716.036 301.707C716.492 302.425 716.716 303.266 716.678 304.115C716.639 304.965 716.34 305.782 715.821 306.456C715.301 307.129 714.587 307.626 713.775 307.879C712.963 308.133 712.093 308.129 711.283 307.871C710.473 307.612 709.762 307.109 709.248 306.432C708.733 305.755 708.44 304.936 708.407 304.086C708.375 303.236 708.605 302.397 709.067 301.682C709.528 300.968 710.198 300.413 710.986 300.093C711.871 299.642 712.898 299.559 713.843 299.861C714.789 300.164 715.577 300.827 716.036 301.707Z" fill="#263238"/>
<path d="M675.267 316.732L678.143 319.629L697.513 311.351L689.856 308.702L675.267 316.732Z" fill="#E58A7B"/>
<path opacity="0.2" d="M758.438 694.989C758.562 694.989 761.376 702.894 761.376 702.894L732.735 714.938L728.224 706.536L758.438 694.989Z" fill="black"/>
<path opacity="0.2" d="M816.985 705.025C817.109 705.025 817.937 712.993 817.937 712.993H786.564L784.329 703.846L816.985 705.025Z" fill="black"/>
<path d="M812.142 216.135C817.833 234.491 795.586 259.594 795.586 259.594L764.854 247.053C768.497 236.443 772.697 226.033 777.437 215.866C786.874 195.523 806.389 197.613 812.142 216.135Z" fill="#FFA500"/>
<path opacity="0.2" d="M812.142 216.135C817.833 234.491 795.586 259.594 795.586 259.594L764.854 247.053C768.497 236.443 772.697 226.033 777.437 215.866C786.874 195.523 806.389 197.613 812.142 216.135Z" fill="black"/>
<path d="M506.771 32.2216H493.547V34.3531H506.771V32.2216Z" fill="#FFA500"/>
<path d="M677.953 116.586L676.353 152.104L678.482 152.2L680.082 116.682L677.953 116.586Z" fill="#FFA500"/>
<path d="M673.838 41.7825H429.641L406.918 550.292H651.115L673.838 41.7825Z" fill="#FFA500"/>
<path opacity="0.56" d="M666.554 48.7773H422.357L399.635 557.286H643.832L666.554 48.7773Z" fill="#FAFAFA"/>
<path opacity="0.07" d="M659.269 55.7514H415.073L392.329 564.26H636.526L659.269 55.7514Z" fill="#FFA500"/>
<path d="M631.477 277.536H423.04L421.302 316.442H629.738L631.477 277.536Z" fill="white"/>
<path d="M537.666 249.143H424.301L423.535 266.547H536.9L537.666 249.143Z" fill="#FFA500"/>
<path d="M626.778 382.541H418.342L416.604 421.447H625.04L626.778 382.541Z" fill="white"/>
<path opacity="0.47" d="M588.556 473.99H448.391L446.301 520.615H586.466L588.556 473.99Z" fill="#FFA500"/>
<path d="M579.181 527.859H439.016C438.955 527.874 438.891 527.874 438.83 527.859C438.809 527.798 438.809 527.733 438.83 527.672L440.899 481.027C440.899 480.995 440.906 480.963 440.918 480.934C440.931 480.905 440.95 480.879 440.973 480.858C440.996 480.836 441.024 480.82 441.054 480.81C441.084 480.8 441.116 480.796 441.148 480.799H581.312C581.338 480.786 581.367 480.779 581.395 480.779C581.424 480.779 581.452 480.786 581.478 480.799C581.493 480.824 581.5 480.853 581.5 480.882C581.5 480.911 581.493 480.939 581.478 480.964L579.45 527.714C579.425 527.762 579.386 527.802 579.338 527.828C579.29 527.854 579.235 527.865 579.181 527.859ZM439.264 527.362H578.933L581.002 481.213H441.334L439.264 527.362Z" fill="white"/>
<path d="M513.186 354.148H419.605L418.839 371.573H512.399L513.186 354.148Z" fill="#FFA500"/>
<path d="M585.887 151.857C585.352 163.18 581.325 174.06 574.36 183.003C569.204 189.758 562.568 195.242 554.963 199.034C547.358 202.825 538.985 204.824 530.487 204.877C523.62 204.929 516.815 203.575 510.491 200.898C504.167 198.221 498.458 194.277 493.716 189.31C488.974 184.343 485.299 178.458 482.917 172.016C480.535 165.575 479.498 158.715 479.868 151.857C480.596 137.628 486.732 124.214 497.022 114.358C507.312 104.503 520.979 98.951 535.226 98.8377C542.099 98.7736 548.911 100.119 555.243 102.792C561.574 105.465 567.291 109.407 572.039 114.376C576.787 119.345 580.465 125.235 582.847 131.682C585.229 138.128 586.263 144.995 585.887 151.857Z" fill="white"/>
<path d="M590.874 109.93C590.739 112.941 589.668 115.834 587.811 118.208C586.437 120.002 584.671 121.459 582.648 122.466C580.625 123.474 578.399 124.007 576.139 124.023C573.95 124.036 571.79 123.513 569.849 122.5C567.909 121.486 566.246 120.012 565.006 118.208C563.363 115.769 562.551 112.867 562.688 109.93C562.888 106.152 564.522 102.593 567.256 99.9777C569.99 97.3627 573.618 95.8892 577.402 95.8576C579.227 95.841 581.036 96.1982 582.718 96.9073C584.4 97.6165 585.918 98.6625 587.18 99.9809C588.443 101.299 589.421 102.862 590.057 104.573C590.692 106.284 590.97 108.107 590.874 109.93Z" fill="#FFA500"/>
<path d="M445.495 296.989C445.395 298.657 444.668 300.225 443.458 301.377C442.248 302.529 440.647 303.179 438.976 303.197C438.169 303.207 437.37 303.051 436.626 302.739C435.882 302.427 435.21 301.966 434.651 301.384C434.092 300.802 433.659 300.112 433.378 299.356C433.097 298.6 432.973 297.794 433.016 296.989C433.106 295.318 433.831 293.744 435.042 292.59C436.254 291.436 437.861 290.789 439.535 290.781C440.341 290.774 441.139 290.932 441.882 291.245C442.624 291.558 443.295 292.019 443.853 292.6C444.411 293.181 444.844 293.871 445.127 294.625C445.409 295.38 445.534 296.184 445.495 296.989Z" fill="#263238"/>
<path d="M473.39 296.989C473.296 298.658 472.569 300.229 471.358 301.382C470.148 302.535 468.543 303.184 466.871 303.197C466.067 303.204 465.269 303.046 464.527 302.733C463.786 302.42 463.116 301.958 462.56 301.377C462.004 300.795 461.572 300.106 461.292 299.351C461.012 298.597 460.89 297.793 460.932 296.989C461.022 295.321 461.744 293.751 462.951 292.597C464.158 291.444 465.76 290.794 467.43 290.781C468.237 290.771 469.037 290.927 469.781 291.239C470.524 291.551 471.197 292.012 471.755 292.594C472.314 293.175 472.747 293.866 473.028 294.622C473.31 295.378 473.433 296.183 473.39 296.989Z" fill="#263238"/>
<path d="M501.306 296.989C501.212 298.658 500.485 300.229 499.274 301.382C498.064 302.535 496.459 303.184 494.787 303.197C493.982 303.204 493.183 303.046 492.441 302.733C491.698 302.42 491.027 301.959 490.469 301.378C489.911 300.797 489.478 300.107 489.196 299.353C488.913 298.598 488.788 297.794 488.827 296.989C488.922 295.32 489.648 293.749 490.859 292.596C492.07 291.443 493.674 290.794 495.346 290.781C496.153 290.771 496.953 290.927 497.697 291.239C498.441 291.551 499.113 292.012 499.671 292.594C500.23 293.176 500.663 293.866 500.944 294.622C501.226 295.378 501.349 296.183 501.306 296.989Z" fill="#263238"/>
<path d="M440.797 401.994C440.697 403.661 439.969 405.229 438.759 406.381C437.55 407.533 435.948 408.184 434.278 408.202C433.472 408.209 432.673 408.051 431.931 407.738C431.188 407.425 430.518 406.964 429.96 406.382C429.402 405.801 428.968 405.112 428.686 404.357C428.403 403.603 428.278 402.798 428.318 401.994C428.412 400.324 429.139 398.754 430.349 397.6C431.56 396.447 433.164 395.798 434.836 395.785C435.642 395.779 436.441 395.937 437.183 396.25C437.926 396.562 438.597 397.024 439.155 397.605C439.713 398.186 440.146 398.875 440.428 399.63C440.711 400.385 440.836 401.189 440.797 401.994Z" fill="#263238"/>
<path d="M468.692 401.994C468.598 403.659 467.874 405.227 466.668 406.38C465.461 407.532 463.862 408.184 462.194 408.202C461.387 408.212 460.587 408.056 459.843 407.744C459.099 407.432 458.427 406.971 457.869 406.389C457.31 405.807 456.877 405.117 456.596 404.361C456.314 403.605 456.191 402.799 456.234 401.994C456.328 400.324 457.055 398.754 458.266 397.601C459.476 396.447 461.081 395.798 462.753 395.785C463.557 395.779 464.355 395.937 465.097 396.25C465.838 396.563 466.508 397.024 467.064 397.606C467.62 398.188 468.052 398.877 468.332 399.631C468.612 400.386 468.734 401.19 468.692 401.994Z" fill="#263238"/>
<path d="M496.671 401.994C496.577 403.663 495.85 405.234 494.64 406.387C493.429 407.54 491.825 408.189 490.153 408.202C489.348 408.206 488.551 408.046 487.809 407.732C487.068 407.418 486.399 406.957 485.841 406.376C485.284 405.795 484.85 405.107 484.567 404.354C484.283 403.601 484.156 402.798 484.193 401.994C484.292 400.326 485.02 398.758 486.23 397.606C487.439 396.454 489.041 395.803 490.711 395.785C491.518 395.776 492.318 395.932 493.062 396.243C493.806 396.555 494.478 397.016 495.036 397.598C495.595 398.18 496.028 398.87 496.31 399.626C496.591 400.382 496.714 401.188 496.671 401.994Z" fill="#263238"/>
<path d="M524.526 401.994C524.427 403.661 523.699 405.229 522.489 406.381C521.279 407.533 519.678 408.184 518.007 408.202C517.202 408.206 516.405 408.046 515.664 407.732C514.923 407.418 514.253 406.957 513.696 406.376C513.138 405.795 512.705 405.107 512.421 404.354C512.138 403.601 512.011 402.798 512.047 401.994C512.147 400.326 512.874 398.758 514.084 397.606C515.294 396.454 516.895 395.803 518.566 395.785C519.372 395.779 520.17 395.937 520.913 396.25C521.655 396.562 522.326 397.024 522.884 397.605C523.442 398.186 523.876 398.875 524.158 399.63C524.44 400.385 524.565 401.189 524.526 401.994Z" fill="#263238"/>
<path d="M552.548 401.994C552.448 403.661 551.72 405.229 550.511 406.381C549.301 407.533 547.699 408.184 546.029 408.202C545.222 408.212 544.422 408.056 543.678 407.744C542.934 407.432 542.262 406.971 541.704 406.389C541.145 405.807 540.712 405.117 540.431 404.361C540.149 403.605 540.026 402.799 540.069 401.994C540.163 400.324 540.89 398.754 542.101 397.6C543.311 396.447 544.916 395.798 546.588 395.785C547.393 395.779 548.192 395.937 548.934 396.25C549.677 396.562 550.348 397.024 550.906 397.605C551.464 398.186 551.897 398.875 552.179 399.63C552.462 400.385 552.587 401.189 552.548 401.994Z" fill="#263238"/>
<path d="M548.312 149.096C556.974 140.626 557.434 127.048 549.339 118.771C541.244 110.493 527.66 110.649 518.998 119.12C510.336 127.59 509.877 141.167 517.972 149.445C526.066 157.723 539.65 157.566 548.312 149.096Z" fill="#FFA500"/>
<path d="M574.359 183.003C569.203 189.758 562.568 195.242 554.962 199.034C547.357 202.825 538.984 204.824 530.487 204.877C522.246 204.947 514.115 202.988 506.81 199.173C499.506 195.359 493.252 189.805 488.601 183.003C498.658 172.987 514.572 166.447 532.204 166.447C549.836 166.447 565.191 172.987 574.359 183.003Z" fill="#FFA500"/>
<path opacity="0.1" d="M548.312 149.096C556.974 140.626 557.434 127.048 549.339 118.771C541.244 110.493 527.66 110.649 518.998 119.12C510.336 127.59 509.877 141.167 517.972 149.445C526.066 157.723 539.65 157.566 548.312 149.096Z" fill="white"/>
<path opacity="0.1" d="M574.359 183.003C569.203 189.758 562.568 195.242 554.962 199.034C547.357 202.825 538.984 204.824 530.487 204.877C522.246 204.947 514.115 202.988 506.81 199.173C499.506 195.359 493.252 189.805 488.601 183.003C498.658 172.987 514.572 166.447 532.204 166.447C549.836 166.447 565.191 172.987 574.359 183.003Z" fill="white"/>
<path d="M269.878 325.817C267.912 330.121 265.843 334.86 264.043 339.454C262.242 344.049 260.4 348.788 258.807 353.506C255.553 362.805 253.075 372.357 251.398 382.065L250.943 385.107C250.899 385.629 250.948 386.154 251.088 386.659C251.576 388.374 252.345 389.996 253.364 391.46C256.022 395.249 259.105 398.721 262.552 401.807C266.188 405.189 270.001 408.373 273.976 411.348C277.949 414.41 282.13 417.39 286.248 420.205L282.378 427.469C272.544 423.184 263.21 417.834 254.544 411.513C249.92 408.141 245.747 404.191 242.127 399.759C239.981 397.12 238.308 394.131 237.181 390.922C236.526 388.918 236.19 386.822 236.188 384.714C236.187 384.217 236.188 383.493 236.188 383.141V382.127L236.394 380.057C237.581 369.275 239.848 358.64 243.162 348.312C244.776 343.221 246.493 338.151 248.459 333.205C250.425 328.259 252.453 323.416 254.958 318.387L269.878 325.817Z" fill="#E58A7B"/>
<path d="M283.331 418.922L297.962 411.513L294.175 427.572C294.175 427.572 284.138 430.387 279.481 425.503L283.331 418.922Z" fill="#E58A7B"/>
<path d="M311.349 414.141L307.459 427.427L294.173 427.572L297.96 411.513L311.349 414.141Z" fill="#E58A7B"/>
<path d="M332.004 248.336C332.787 251.204 333.876 253.979 335.253 256.614C334.851 257.07 334.333 257.409 333.754 257.595C333.174 257.781 332.556 257.806 331.963 257.669L332.004 248.336Z" fill="#DF5753"/>
<path d="M331.569 248.46C332.426 248.46 333.121 247.394 333.121 246.08C333.121 244.766 332.426 243.7 331.569 243.7C330.711 243.7 330.017 244.766 330.017 246.08C330.017 247.394 330.711 248.46 331.569 248.46Z" fill="#263238"/>
<path d="M331.113 243.783L334.259 242.893C334.259 242.893 332.727 245.335 331.113 243.783Z" fill="#263238"/>
<path d="M291.586 263.526C293.47 273.149 295.353 290.801 288.606 297.237C288.606 297.237 291.255 307.005 309.156 307.005C328.837 307.005 318.552 297.237 318.552 297.237C307.811 294.671 308.08 286.704 309.963 279.212L291.586 263.526Z" fill="#E58A7B"/>
<path d="M286.351 241.589C287.344 257.669 287.427 264.498 295.539 272.756C307.77 285.172 327.306 280.454 331.134 264.478C334.59 249.991 332.397 226.151 316.648 219.757C313.191 218.332 309.428 217.814 305.715 218.25C302.001 218.685 298.461 220.061 295.428 222.247C292.394 224.433 289.969 227.356 288.381 230.741C286.792 234.126 286.094 237.86 286.351 241.589Z" fill="#E58A7B"/>
<path d="M287.944 223.502C279.873 226.441 269.111 224.247 273.333 249.143C277.803 275.508 270.933 284.179 270.933 284.179C270.933 284.179 301.54 290.698 332.789 283.786C332.789 283.786 323.249 267.106 325.918 254.813C329.333 239.292 326.643 233.56 326.643 233.56C326.643 233.56 299.284 219.363 287.944 223.502Z" fill="#263238"/>
<path d="M322.091 249.971C322.099 253.028 322.975 256.021 324.616 258.6C326.809 261.953 329.396 260.67 330.038 257.11C330.617 253.985 330.182 248.46 327.389 246.308C324.595 244.156 322.132 246.266 322.091 249.971Z" fill="#E58A7B"/>
<path d="M280.929 226.213C278.611 219.694 289.662 209.658 313.047 213.796C336.432 217.935 337.446 237.409 337.446 237.409L332.728 231.78L332.935 237.699L308.908 242.314L280.929 226.213Z" fill="#263238"/>
<path d="M282.915 298.334C282.777 297.389 283.014 296.428 283.574 295.655C284.135 294.882 284.975 294.358 285.916 294.195C293.201 292.995 309.756 290.553 318.076 291.712C324.284 292.581 325.898 296.182 326.167 299.141C326.209 299.659 326.14 300.181 325.964 300.67C325.788 301.159 325.509 301.605 325.147 301.977C324.784 302.35 324.346 302.64 323.861 302.829C323.377 303.018 322.858 303.102 322.339 303.073L286.371 301.459C285.524 301.416 284.716 301.082 284.087 300.512C283.457 299.943 283.043 299.174 282.915 298.334Z" fill="#FFA500"/>
<path opacity="0.6" d="M282.915 298.334C282.777 297.389 283.014 296.428 283.574 295.655C284.135 294.882 284.975 294.358 285.916 294.195C293.201 292.995 309.756 290.553 318.076 291.712C324.284 292.581 325.898 296.182 326.167 299.141C326.209 299.659 326.14 300.181 325.964 300.67C325.788 301.159 325.509 301.605 325.147 301.977C324.784 302.35 324.346 302.64 323.861 302.829C323.377 303.018 322.858 303.102 322.339 303.073L286.371 301.459C285.524 301.416 284.716 301.082 284.087 300.512C283.457 299.943 283.043 299.174 282.915 298.334Z" fill="black"/>
<path d="M303.714 659.87L317.062 669.141L339.391 638.865L326.043 629.614L303.714 659.87Z" fill="#E58A7B"/>
<path d="M272.589 659.27L286.682 667.299L306.445 635.284L292.352 627.255L272.589 659.27Z" fill="#E58A7B"/>
<path d="M339.37 638.865L327.864 654.468L314.516 645.218L326.022 629.614L339.37 638.865Z" fill="#CF6F64"/>
<path d="M292.331 627.255L306.445 635.305L296.263 651.799L282.149 643.749L292.331 627.255Z" fill="#CF6F64"/>
<path d="M314.972 399.407C314.972 399.407 367.081 465.071 357.293 527.879C349.408 578.602 303.673 647.287 303.673 647.287L282.171 636.609C297.327 606.24 310.26 574.812 320.87 542.572C324.142 532.563 325.097 521.941 323.663 511.509C322.229 501.077 318.443 491.106 312.592 482.351C286.186 443.797 243.886 466.747 272.341 399.407H314.972Z" fill="#FFA500"/>
<path opacity="0.6" d="M314.972 399.407C314.972 399.407 367.081 465.071 357.293 527.879C349.408 578.602 303.673 647.287 303.673 647.287L282.171 636.609C297.327 606.24 310.26 574.812 320.87 542.572C324.142 532.563 325.097 521.941 323.663 511.509C322.229 501.077 318.443 491.106 312.592 482.351C286.186 443.797 243.886 466.747 272.341 399.407H314.972Z" fill="black"/>
<path opacity="0.4" d="M340.53 441.583L332.956 434.05C332.956 434.65 347.629 525.23 351.747 550.685C354.177 543.249 356.038 535.639 357.314 527.921C362.156 497.106 352.037 465.63 340.53 441.583Z" fill="black"/>
<path d="M338.233 399.407C338.233 399.407 400.979 481.937 402.759 531.418C404.228 572.807 334.466 652.999 334.466 652.999L314.186 639.879C314.186 639.879 355.016 582.927 365.301 536.406C361.328 490.298 277.308 399.407 277.308 399.407H338.233Z" fill="#FFA500"/>
<path opacity="0.6" d="M338.233 399.407C338.233 399.407 400.979 481.937 402.759 531.418C404.228 572.807 334.466 652.999 334.466 652.999L314.186 639.879C314.186 639.879 355.016 582.927 365.301 536.406C361.328 490.298 277.308 399.407 277.308 399.407H338.233Z" fill="black"/>
<path d="M260.607 300.921C253.902 302.514 247.466 326.893 247.466 326.893L273.686 344.4C273.686 344.4 282.419 325.113 279.356 316.67C276.19 307.874 269.03 298.914 260.607 300.921Z" fill="#FFA500"/>
<path opacity="0.2" d="M265.74 316.628L263.919 337.882L273.666 344.421C276.357 338.362 278.35 332.016 279.605 325.506L265.74 316.628Z" fill="black"/>
<path d="M345.993 301.397C345.993 301.397 353.732 304.108 338.232 399.386H272.299C273.416 372.483 273.437 355.927 260.606 300.921C269.839 299.018 279.196 297.787 288.606 297.237C298.575 296.522 308.583 296.522 318.551 297.237C331.424 298.417 345.993 301.397 345.993 301.397Z" fill="#FFA500"/>
<path d="M352.698 316.628C354.188 320.767 355.761 325.216 357.417 329.5C359.072 333.784 360.645 338.192 362.321 342.538L367.391 355.534L368.675 358.783L369.337 360.397L369.647 361.204C369.647 361.349 369.647 361.349 369.647 361.329C369.269 360.796 368.773 360.357 368.199 360.046C367.38 359.564 366.457 359.287 365.508 359.239C364.72 359.214 363.936 359.362 363.211 359.673C362.259 360.108 362.259 360.294 362.28 360.273C362.452 360.135 362.605 359.975 362.735 359.797C363.881 358.293 364.872 356.678 365.695 354.975C366.667 353.071 367.598 351.043 368.53 348.995C370.351 344.856 372.027 340.572 373.703 336.247C375.38 331.922 376.973 327.555 378.525 323.147L383.244 309.944L391.211 312.013C389.638 321.45 387.61 330.638 385.168 339.992C383.989 344.649 382.602 349.264 381.029 353.92C380.243 356.258 379.374 358.576 378.38 360.956C377.345 363.539 376.07 366.019 374.572 368.365C374.022 369.154 373.413 369.901 372.751 370.6C371.695 371.741 370.412 372.65 368.985 373.269C367.719 373.813 366.347 374.068 364.97 374.014C363.428 373.957 361.925 373.508 360.604 372.711C359.045 371.738 357.751 370.394 356.837 368.799C356.527 368.261 356.258 367.723 356.071 367.33L355.678 366.544L354.892 364.93L353.319 361.722C351.25 357.417 349.18 353.072 347.38 348.705C345.579 344.338 343.675 339.91 341.896 335.46C340.116 331.011 338.522 326.562 337.012 321.76L352.698 316.628Z" fill="#E58A7B"/>
<path d="M345.991 301.397C353.917 303.28 362.837 326.706 362.837 326.706L339.266 346.76C339.266 346.76 324.014 321.222 327.097 312.8C330.305 304.025 335.644 298.934 345.991 301.397Z" fill="#FFA500"/>
<path d="M386.989 302.535L395.267 295.623L401.02 304.584L396.778 312.055C396.778 312.055 390.031 318.263 384.071 315.097C383.125 312.971 382.898 310.594 383.425 308.327C383.952 306.06 385.203 304.027 386.989 302.535Z" fill="#E58A7B"/>
<path d="M410.209 295.644L409.588 297.9L396.488 300.093L395.205 295.623L410.209 295.644Z" fill="#E58A7B"/>
<path d="M336.08 654.055L312.446 638.782L316.689 631.415L343.24 647.743L336.08 654.055Z" fill="#FFA500"/>
<path d="M295.933 666.223C293.859 665.97 291.867 665.263 290.097 664.154C290.024 664.128 289.96 664.081 289.916 664.018C289.871 663.955 289.847 663.879 289.847 663.802C289.847 663.724 289.871 663.649 289.916 663.586C289.96 663.523 290.024 663.475 290.097 663.45C290.738 663.243 296.305 661.525 297.919 662.85C298.101 663.001 298.239 663.197 298.319 663.419C298.399 663.641 298.418 663.88 298.375 664.112C298.346 664.485 298.222 664.844 298.016 665.155C297.81 665.467 297.527 665.72 297.195 665.892C296.807 666.103 296.374 666.217 295.933 666.223ZM291.276 663.947C293.863 665.271 295.933 665.747 296.926 665.25C297.142 665.131 297.324 664.957 297.455 664.747C297.585 664.537 297.66 664.297 297.671 664.05C297.671 663.719 297.671 663.574 297.485 663.491C296.616 662.788 293.511 663.326 291.235 663.947H291.276Z" fill="#263238"/>
<path d="M290.243 664.298C290.134 664.297 290.03 664.252 289.953 664.174C289.922 664.117 289.906 664.053 289.906 663.988C289.906 663.923 289.922 663.859 289.953 663.802C289.953 663.616 291.298 659.125 293.409 658.111C293.679 657.988 293.972 657.924 294.268 657.924C294.564 657.924 294.857 657.988 295.127 658.111C295.417 658.203 295.669 658.389 295.842 658.64C296.014 658.891 296.098 659.193 296.079 659.497C295.934 661.36 292.147 663.926 290.408 664.361L290.243 664.298ZM294.258 658.649C294.056 658.655 293.859 658.705 293.678 658.794C292.395 659.415 291.34 661.836 290.822 663.305C292.643 662.539 295.148 660.511 295.23 659.373C295.23 659.187 295.23 658.959 294.754 658.752C294.599 658.669 294.431 658.613 294.258 658.587V658.649Z" fill="#263238"/>
<path d="M325.464 675.163C323.125 675.163 319.876 672.162 318.096 670.321C318.051 670.257 318.026 670.181 318.026 670.103C318.026 670.025 318.051 669.949 318.096 669.886C318.137 669.819 318.195 669.765 318.264 669.728C318.334 669.692 318.411 669.675 318.489 669.679C319.317 669.679 326.498 670.755 327.512 672.783C327.62 672.965 327.676 673.172 327.676 673.383C327.676 673.595 327.62 673.802 327.512 673.984C327.36 674.299 327.131 674.571 326.845 674.774C326.559 674.977 326.226 675.104 325.877 675.142L325.464 675.163ZM319.462 670.61C322.07 673.135 324.367 674.542 325.671 674.377C325.899 674.347 326.116 674.261 326.304 674.128C326.492 673.994 326.644 673.817 326.747 673.611C326.793 673.54 326.818 673.458 326.818 673.373C326.818 673.289 326.793 673.206 326.747 673.135C326.209 672.018 322.38 671.066 319.462 670.61Z" fill="#263238"/>
<path d="M319.691 670.507C319.227 670.52 318.762 670.485 318.305 670.403C318.241 670.394 318.18 670.368 318.13 670.328C318.079 670.288 318.039 670.235 318.015 670.176C317.984 670.115 317.968 670.047 317.968 669.979C317.968 669.911 317.984 669.843 318.015 669.782C318.139 669.638 320.933 666.264 323.582 666.037C324.332 665.978 325.074 666.216 325.651 666.699C326.458 667.403 326.417 668.023 326.21 668.417C325.693 669.824 322.112 670.507 319.691 670.507ZM319.153 669.741C321.471 669.865 325.175 669.1 325.651 668.085C325.651 668.085 325.817 667.754 325.279 667.299C325.064 667.113 324.814 666.973 324.544 666.887C324.273 666.802 323.988 666.773 323.706 666.802C321.921 667.3 320.333 668.333 319.153 669.762V669.741Z" fill="#263238"/>
<path d="M290.802 662.063L273.253 657.097C272.95 657.005 272.625 657.028 272.338 657.162C272.052 657.296 271.825 657.53 271.701 657.821L265.782 671.128C265.643 671.468 265.578 671.835 265.59 672.203C265.603 672.57 265.694 672.931 265.856 673.262C266.018 673.592 266.248 673.884 266.532 674.119C266.815 674.354 267.145 674.527 267.5 674.625C273.708 676.239 276.688 676.694 284.407 678.909C289.167 680.233 295.955 682.696 302.515 684.558C309.075 686.421 311.269 680.026 308.723 678.66C297.217 672.576 296.307 668.313 293.161 663.76C292.598 662.936 291.763 662.335 290.802 662.063Z" fill="#FFA500"/>
<path d="M318.573 667.899L303.59 657.552C303.336 657.367 303.023 657.282 302.71 657.312C302.397 657.343 302.106 657.487 301.893 657.717L291.959 668.396C291.717 668.672 291.537 668.996 291.43 669.347C291.323 669.699 291.292 670.069 291.339 670.433C291.386 670.797 291.51 671.147 291.702 671.459C291.895 671.772 292.152 672.04 292.456 672.245C297.733 675.784 300.465 677.212 307.067 681.785C311.205 684.6 319.214 690.85 324.802 694.74C330.389 698.631 334.549 693.292 332.562 691.181C323.664 681.682 321.718 675.722 320.249 670.321C319.994 669.341 319.4 668.483 318.573 667.899Z" fill="#FFA500"/>
<path d="M306.424 648.653L279.418 635.222L282.212 627.896L311.06 642.052L306.424 648.653Z" fill="#FFA500"/>
<path d="M271.305 395.516L269.028 401.476C268.801 401.932 269.339 402.408 270.104 402.408H338.562C339.162 402.408 339.659 402.118 339.7 401.745L340.28 395.827C340.28 395.433 339.804 395.082 339.162 395.082H272.381C272.18 395.063 271.977 395.092 271.79 395.168C271.603 395.244 271.436 395.363 271.305 395.516Z" fill="#FFA500"/>
<path opacity="0.4" d="M271.305 395.516L269.028 401.476C268.801 401.932 269.339 402.408 270.104 402.408H338.562C339.162 402.408 339.659 402.118 339.7 401.745L340.28 395.827C340.28 395.433 339.804 395.082 339.162 395.082H272.381C272.18 395.063 271.977 395.092 271.79 395.168C271.603 395.244 271.436 395.363 271.305 395.516Z" fill="white"/>
<path d="M282.088 402.987H280.288C279.936 402.987 279.667 402.801 279.688 402.573L280.536 394.895C280.536 394.688 280.867 394.502 281.219 394.502H283.019C283.371 394.502 283.64 394.688 283.62 394.895L282.771 402.573C282.75 402.801 282.44 402.987 282.088 402.987Z" fill="#FFA500"/>
<path d="M324.304 402.987H322.524C322.172 402.987 321.903 402.801 321.924 402.573L322.752 394.895C322.752 394.688 323.104 394.502 323.455 394.502H325.235C325.587 394.502 325.877 394.688 325.835 394.895L325.007 402.573C324.904 402.801 324.676 402.987 324.304 402.987Z" fill="#FFA500"/>
<g style="mix-blend-mode:multiply">
<path d="M280.515 753.451C311.134 753.451 335.956 751.654 335.956 749.436C335.956 747.219 311.134 745.421 280.515 745.421C249.896 745.421 225.074 747.219 225.074 749.436C225.074 751.654 249.896 753.451 280.515 753.451Z" fill="#F5F5F5"/>
</g>
<path d="M314.288 743.766C304.478 740.91 293.593 737.247 287.012 733.419C286.826 733.294 286.619 733.232 286.433 733.129V688.718H306.279C307.785 688.629 309.201 687.968 310.236 686.869C311.271 685.771 311.848 684.319 311.848 682.81C311.848 681.301 311.271 679.848 310.236 678.75C309.201 677.652 307.785 676.991 306.279 676.901H286.536V474.466H274.616V676.901H254.894C254.089 676.854 253.282 676.971 252.524 677.247C251.765 677.522 251.072 677.949 250.484 678.503C249.897 679.056 249.43 679.724 249.11 680.464C248.79 681.205 248.625 682.003 248.625 682.81C248.625 683.616 248.79 684.415 249.11 685.155C249.43 685.896 249.897 686.564 250.484 687.117C251.072 687.67 251.765 688.098 252.524 688.373C253.282 688.648 254.089 688.766 254.894 688.718H274.616V733.067C274.43 733.067 274.243 733.232 274.057 733.356C267.373 737.247 256.57 740.91 246.761 743.704C246.098 743.904 245.529 744.335 245.157 744.919C244.785 745.502 244.634 746.2 244.731 746.885C244.829 747.571 245.168 748.198 245.689 748.655C246.209 749.111 246.876 749.367 247.568 749.374H313.48C314.142 749.329 314.768 749.058 315.254 748.608C315.74 748.157 316.057 747.553 316.151 746.896C316.246 746.24 316.112 745.571 315.773 745.001C315.434 744.432 314.909 743.996 314.288 743.766Z" fill="#E0E0E0"/>
<path d="M317.331 453.854H243.74C237.82 453.854 233.021 458.654 233.021 464.574V486.449C233.021 492.369 237.82 497.168 243.74 497.168H317.331C323.251 497.168 328.05 492.369 328.05 486.449V464.574C328.05 458.654 323.251 453.854 317.331 453.854Z" fill="#FFA500"/>
<path d="M243.058 497.189V500.956C243.058 504.06 246.431 506.584 250.57 506.584H310.584C314.723 506.584 318.096 504.06 318.096 500.956V497.189H243.058Z" fill="#FFA500"/>
<path opacity="0.3" d="M243.058 497.189V500.956C243.058 504.06 246.431 506.584 250.57 506.584H310.584C314.723 506.584 318.096 504.06 318.096 500.956V497.189H243.058Z" fill="white"/>
</svg>
